  0
SECTION
  2
HEADER
  9
$ACADVER
  1
AC1015
  9
$ACADMAINTVER
 70
     6
  9
$DWGCODEPAGE
  3
ANSI_1252
  9
$INSBASE
 10
0.0
 20
0.0
 30
0.0
  9
$EXTMIN
 10
0.0
 20
0.0
 30
0.0
  9
$EXTMAX
 10
420.0
 20
297.0
 30
0.0
  9
$LIMMIN
 10
0.0
 20
0.0
  9
$LIMMAX
 10
420.0
 20
297.0
  9
$ORTHOMODE
 70
     0
  9
$REGENMODE
 70
     1
  9
$FILLMODE
 70
     1
  9
$QTEXTMODE
 70
     0
  9
$MIRRTEXT
 70
     1
  9
$LTSCALE
 40
1.0
  9
$ATTMODE
 70
     1
  9
$TEXTSIZE
 40
3.5
  9
$TRACEWID
 40
1.0
  9
$TEXTSTYLE
  7
Standard
  9
$CLAYER
  8
0
  9
$CELTYPE
  6
ByLayer
  9
$CECOLOR
 62
   256
  9
$CELTSCALE
 40
1.0
  9
$DISPSILH
 70
     0
  9
$DIMSCALE
 40
1.0
  9
$DIMASZ
 40
3.302
  9
$DIMEXO
 40
1.0
  9
$DIMDLI
 40
3.75
  9
$DIMRND
 40
0.0
  9
$DIMDLE
 40
0.0
  9
$DIMEXE
 40
1.0
  9
$DIMTP
 40
0.0
  9
$DIMTM
 40
0.0
  9
$DIMTXT
 40
3.5
  9
$DIMCEN
 40
2.5
  9
$DIMTSZ
 40
0.0
  9
$DIMTOL
 70
     0
  9
$DIMLIM
 70
     0
  9
$DIMTIH
 70
     1
  9
$DIMTOH
 70
     1
  9
$DIMSE1
 70
     0
  9
$DIMSE2
 70
     0
  9
$DIMTAD
 70
     1
  9
$DIMZIN
 70
     0
  9
$DIMBLK
  1

  9
$DIMASO
 70
     1
  9
$DIMSHO
 70
     1
  9
$DIMPOST
  1

  9
$DIMAPOST
  1

  9
$DIMALT
 70
     0
  9
$DIMALTD
 70
     3
  9
$DIMALTF
 40
0.0393700787
  9
$DIMLFAC
 40
2.0
  9
$DIMTOFL
 70
     1
  9
$DIMTVP
 40
0.0
  9
$DIMTIX
 70
     0
  9
$DIMSOXD
 70
     0
  9
$DIMSAH
 70
     0
  9
$DIMBLK1
  1

  9
$DIMBLK2
  1

  9
$DIMSTYLE
  2
ISO-25
  9
$DIMCLRD
 70
     0
  9
$DIMCLRE
 70
     0
  9
$DIMCLRT
 70
     0
  9
$DIMTFAC
 40
1.0
  9
$DIMGAP
 40
1.524
  9
$DIMJUST
 70
     0
  9
$DIMSD1
 70
     0
  9
$DIMSD2
 70
     0
  9
$DIMTOLJ
 70
     0
  9
$DIMTZIN
 70
     0
  9
$DIMALTZ
 70
     0
  9
$DIMALTTZ
 70
     0
  9
$DIMUPT
 70
     0
  9
$DIMDEC
 70
     2
  9
$DIMTDEC
 70
     2
  9
$DIMALTU
 70
     2
  9
$DIMALTTD
 70
     3
  9
$DIMTXSTY
  7
Standard
  9
$DIMAUNIT
 70
     0
  9
$DIMADEC
 70
     2
  9
$DIMALTRND
 40
0.0
  9
$DIMAZIN
 70
     0
  9
$DIMDSEP
 70
    44
  9
$DIMATFIT
 70
     3
  9
$DIMFRAC
 70
     0
  9
$DIMLDRBLK
  1

  9
$DIMLUNIT
 70
     2
  9
$DIMLWD
 70
    -2
  9
$DIMLWE
 70
    -2
  9
$DIMTMOVE
 70
     0
  9
$LUNITS
 70
     2
  9
$LUPREC
 70
     2
  9
$SKETCHINC
 40
1.0
  9
$FILLETRAD
 40
10.0
  9
$AUNITS
 70
     0
  9
$AUPREC
 70
     2
  9
$MENU
  1
.
  9
$ELEVATION
 40
0.0
  9
$PELEVATION
 40
0.0
  9
$THICKNESS
 40
0.0
  9
$LIMCHECK
 70
     0
  9
$CHAMFERA
 40
0.0
  9
$CHAMFERB
 40
0.0
  9
$CHAMFERC
 40
0.0
  9
$CHAMFERD
 40
0.0
  9
$SKPOLY
 70
     0
  9
$TDCREATE
 40
2457317.343088773
  9
$TDUCREATE
 40
2457317.25975544
  9
$TDUPDATE
 40
2457317.343089317
  9
$TDUUPDATE
 40
2457317.259755984
  9
$TDINDWG
 40
0.0000000116
  9
$TDUSRTIMER
 40
0.0000000116
  9
$USRTIMER
 70
     1
  9
$ANGBASE
 50
0.0
  9
$ANGDIR
 70
     0
  9
$PDMODE
 70
     0
  9
$PDSIZE
 40
-1.0
  9
$PLINEWID
 40
0.0
  9
$SPLFRAME
 70
     0
  9
$SPLINETYPE
 70
     6
  9
$SPLINESEGS
 70
     8
  9
$HANDSEED
  5
AC
  9
$SURFTAB1
 70
     6
  9
$SURFTAB2
 70
     6
  9
$SURFTYPE
 70
     6
  9
$SURFU
 70
     6
  9
$SURFV
 70
     6
  9
$UCSBASE
  2

  9
$UCSNAME
  2

  9
$UCSORG
 10
0.0
 20
0.0
 30
0.0
  9
$UCSXDIR
 10
1.0
 20
0.0
 30
0.0
  9
$UCSYDIR
 10
0.0
 20
1.0
 30
0.0
  9
$UCSORTHOREF
  2

  9
$UCSORTHOVIEW
 70
     0
  9
$UCSORGTOP
 10
0.0
 20
0.0
 30
0.0
  9
$UCSORGBOTTOM
 10
0.0
 20
0.0
 30
0.0
  9
$UCSORGLEFT
 10
0.0
 20
0.0
 30
0.0
  9
$UCSORGRIGHT
 10
0.0
 20
0.0
 30
0.0
  9
$UCSORGFRONT
 10
0.0
 20
0.0
 30
0.0
  9
$UCSORGBACK
 10
0.0
 20
0.0
 30
0.0
  9
$PUCSBASE
  2

  9
$PUCSNAME
  2

  9
$PUCSORG
 10
0.0
 20
0.0
 30
0.0
  9
$PUCSXDIR
 10
1.0
 20
0.0
 30
0.0
  9
$PUCSYDIR
 10
0.0
 20
1.0
 30
0.0
  9
$PUCSORTHOREF
  2

  9
$PUCSORTHOVIEW
 70
     0
  9
$PUCSORGTOP
 10
0.0
 20
0.0
 30
0.0
  9
$PUCSORGBOTTOM
 10
0.0
 20
0.0
 30
0.0
  9
$PUCSORGLEFT
 10
0.0
 20
0.0
 30
0.0
  9
$PUCSORGRIGHT
 10
0.0
 20
0.0
 30
0.0
  9
$PUCSORGFRONT
 10
0.0
 20
0.0
 30
0.0
  9
$PUCSORGBACK
 10
0.0
 20
0.0
 30
0.0
  9
$USERI1
 70
     0
  9
$USERI2
 70
     0
  9
$USERI3
 70
     0
  9
$USERI4
 70
     0
  9
$USERI5
 70
     0
  9
$USERR1
 40
0.0
  9
$USERR2
 40
0.0
  9
$USERR3
 40
0.0
  9
$USERR4
 40
0.0
  9
$USERR5
 40
0.0
  9
$WORLDVIEW
 70
     1
  9
$SHADEDGE
 70
     3
  9
$SHADEDIF
 70
    70
  9
$TILEMODE
 70
     1
  9
$MAXACTVP
 70
    64
  9
$PINSBASE
 10
0.0
 20
0.0
 30
0.0
  9
$PLIMCHECK
 70
     0
  9
$PEXTMIN
 10
1.0000000000E+20
 20
1.0000000000E+20
 30
1.0000000000E+20
  9
$PEXTMAX
 10
-1.0000000000E+20
 20
-1.0000000000E+20
 30
-1.0000000000E+20
  9
$PLIMMIN
 10
0.0
 20
0.0
  9
$PLIMMAX
 10
420.0
 20
297.0
  9
$UNITMODE
 70
     0
  9
$VISRETAIN
 70
     1
  9
$PLINEGEN
 70
     0
  9
$PSLTSCALE
 70
     1
  9
$TREEDEPTH
 70
  3020
  9
$CMLSTYLE
  2
Standard
  9
$CMLJUST
 70
     0
  9
$CMLSCALE
 40
20.0
  9
$PROXYGRAPHICS
 70
     1
  9
$MEASUREMENT
 70
     1
  9
$CELWEIGHT
370
    -1
  9
$ENDCAPS
280
     0
  9
$JOINSTYLE
280
     0
  9
$LWDISPLAY
290
     1
  9
$INSUNITS
 70
     4
  9
$HYPERLINKBASE
  1

  9
$STYLESHEET
  1

  9
$XEDIT
290
     1
  9
$CEPSNTYPE
380
     0
  9
$PSTYLEMODE
290
     1
  9
$FINGERPRINTGUID
  2
{692BB0DE-8871-4EA2-9965-55D295A4C404}
  9
$VERSIONGUID
  2
{FAEB1C32-E019-11D5-929B-00C0DF256EC4}
  9
$EXTNAMES
290
     1
  9
$PSVPSCALE
 40
0.0
  9
$OLESTARTUP
290
     0
  0
ENDSEC
  0
SECTION
  2
CLASSES
  0
CLASS
  1
ACDBDICTIONARYWDFLT
  2
AcDbDictionaryWithDefault
  3
ObjectDBX Classes
 90
        0
280
     0
281
     0
  0
CLASS
  1
VISUALSTYLE
  2
AcDbVisualStyle
  3
ObjectDBX Classes
 90
     4095
280
     0
281
     0
  0
CLASS
  1
MATERIAL
  2
AcDbMaterial
  3
ObjectDBX Classes
 90
     1153
280
     0
281
     0
  0
CLASS
  1
SCALE
  2
AcDbScale
  3
ObjectDBX Classes
 90
     1153
280
     0
281
     0
  0
CLASS
  1
TABLESTYLE
  2
AcDbTableStyle
  3
ObjectDBX Classes
 90
     4095
280
     0
281
     0
  0
CLASS
  1
MLEADERSTYLE
  2
AcDbMLeaderStyle
  3
ACDB_MLEADERSTYLE_CLASS
 90
     4095
280
     0
281
     0
  0
CLASS
  1
SUN
  2
AcDbSun
  3
SCENEOE
 90
     1153
280
     0
281
     0
  0
CLASS
  1
ACDBPLACEHOLDER
  2
AcDbPlaceHolder
  3
ObjectDBX Classes
 90
        0
280
     0
281
     0
  0
CLASS
  1
LAYOUT
  2
AcDbLayout
  3
ObjectDBX Classes
 90
        0
280
     0
281
     0
  0
ENDSEC
  0
SECTION
  2
TABLES
  0
TABLE
  2
VPORT
  5
8
330
0
100
AcDbSymbolTable
 70
     1
  0
VPORT
  5
29
330
8
100
AcDbSymbolTableRecord
100
AcDbViewportTableRecord
  2
*Active
 70
     0
 10
0.0
 20
0.0
 11
1.0
 21
1.0
 12
210.0
 22
148.5
 13
0.0
 23
0.0
 14
10.0
 24
10.0
 15
10.0
 25
10.0
 16
0.0
 26
0.0
 36
1.0
 17
0.0
 27
0.0
 37
0.0
 40
297.0
 41
1.4141414141
 42
50.0
 43
0.0
 44
0.0
 50
0.0
 51
0.0
 71
     0
 72
  2000
 73
     1
 74
     3
 75
     0
 76
     0
 77
     0
 78
     0
281
     0
 65
     1
110
0.0
120
0.0
130
0.0
111
1.0
121
0.0
131
0.0
112
0.0
122
1.0
132
0.0
 79
     0
146
0.0
  0
ENDTAB
  0
TABLE
  2
LTYPE
  5
5
330
0
100
AcDbSymbolTable
 70
     6
  0
LTYPE
  5
14
330
5
100
AcDbSymbolTableRecord
100
AcDbLinetypeTableRecord
  2
ByBlock
 70
     0
  3

 72
    65
 73
     0
 40
0.0
  0
LTYPE
  5
15
330
5
100
AcDbSymbolTableRecord
100
AcDbLinetypeTableRecord
  2
ByLayer
 70
     0
  3

 72
    65
 73
     0
 40
0.0
  0
LTYPE
  5
16
330
5
100
AcDbSymbolTableRecord
100
AcDbLinetypeTableRecord
  2
Continuous
 70
     0
  3
Solid line
 72
    65
 73
     0
 40
0.0
  0
LTYPE
  5
6E
330
5
100
AcDbSymbolTableRecord
100
AcDbLinetypeTableRecord
  2
HIDDEN
 70
     0
  3
Hidden __ __ __ __ __ __ __ __ __ __ __ __ __ __
 72
    65
 73
     2
 40
1.905
 49
1.27
 74
     0
 49
-0.635
 74
     0
  0
LTYPE
  5
6F
330
5
100
AcDbSymbolTableRecord
100
AcDbLinetypeTableRecord
  2
PHANTOM
 70
     0
  3
Phantom ______  __  __  ______  __  __  ______
 72
    65
 73
     6
 40
12.7
 49
6.35
 74
     0
 49
-1.27
 74
     0
 49
1.27
 74
     0
 49
-1.27
 74
     0
 49
1.27
 74
     0
 49
-1.27
 74
     0
  0
LTYPE
  5
70
330
5
100
AcDbSymbolTableRecord
100
AcDbLinetypeTableRecord
  2
CENTER
 70
     0
  3
Center ____ _ ____ _ ____ _ ____ _ ____ _ ____
 72
    65
 73
     4
 40
10.16
 49
6.35
 74
     0
 49
-1.27
 74
     0
 49
1.27
 74
     0
 49
-1.27
 74
     0
  0
LTYPE
  5
71
330
5
100
AcDbSymbolTableRecord
100
AcDbLinetypeTableRecord
  2
CENTERX2
 70
     0
  3
Center (2x) ________  __  ________  __  _____
 72
    65
 73
     4
 40
20.32
 49
12.7
 74
     0
 49
-2.54
 74
     0
 49
2.54
 74
     0
 49
-2.54
 74
     0
  0
LTYPE
  5
72
330
5
100
AcDbSymbolTableRecord
100
AcDbLinetypeTableRecord
  2
DOT2
 70
     0
  3
Dot (.5x) ........................................
 72
    65
 73
     2
 40
0.635
 49
0.0
 74
     0
 49
-0.635
 74
     0
  0
ENDTAB
  0
TABLE
  2
LAYER
  5
2
330
0
100
AcDbSymbolTable
 70
     2
  0
LAYER
  5
10
330
2
100
AcDbSymbolTableRecord
100
AcDbLayerTableRecord
  2
0
 70
     0
 62
     7
  6
Continuous
370
    -3
390
F
  0
LAYER
  5
73
330
2
100
AcDbSymbolTableRecord
100
AcDbLayerTableRecord
  2
FORMAT
 70
     0
 62
     7
  6
Continuous
370
    -3
390
F
  0
ENDTAB
  0
TABLE
  2
STYLE
  5
3
330
0
100
AcDbSymbolTable
 70
     4
  0
STYLE
  5
11
330
3
100
AcDbSymbolTableRecord
100
AcDbTextStyleTableRecord
  2
Standard
 70
     0
 40
0.0
 41
1.0
 50
0.0
 71
     0
 42
3.5
  3
txt
  4

  0
STYLE
  5
87
330
3
100
AcDbSymbolTableRecord
100
AcDbTextStyleTableRecord
  2
SLDTEXTSTYLE0
 70
     0
 40
0.0
 41
0.75
 50
0.0
 71
     0
 42
3.5
  3
TXT
  4

  0
STYLE
  5
96
330
3
100
AcDbSymbolTableRecord
100
AcDbTextStyleTableRecord
  2
SLDTEXTSTYLE1
 70
     0
 40
0.0
 41
0.6818181818
 50
0.0
 71
     0
 42
3.5
  3
TXT
  4

  0
STYLE
  5
9C
330
3
100
AcDbSymbolTableRecord
100
AcDbTextStyleTableRecord
  2
SLDTEXTSTYLE2
 70
     0
 40
0.0
 41
0.7
 50
0.0
 71
     0
 42
3.5
  3
TXT
  4

  0
ENDTAB
  0
TABLE
  2
VIEW
  5
6
330
0
100
AcDbSymbolTable
 70
     0
  0
ENDTAB
  0
TABLE
  2
UCS
  5
7
330
0
100
AcDbSymbolTable
 70
     0
  0
ENDTAB
  0
TABLE
  2
APPID
  5
9
330
0
100
AcDbSymbolTable
 70
     1
  0
APPID
  5
12
330
9
100
AcDbSymbolTableRecord
100
AcDbRegAppTableRecord
  2
ACAD
 70
     0
  0
ENDTAB
  0
TABLE
  2
DIMSTYLE
  5
A
330
0
100
AcDbSymbolTable
 70
     1
100
AcDbDimStyleTable
  0
DIMSTYLE
105
27
330
A
100
AcDbSymbolTableRecord
100
AcDbDimStyleTableRecord
  2
ISO-25
 70
     0
 41
2.5
 42
0.625
 43
3.75
 44
1.25
 73
     0
 74
     0
 77
     1
 78
     8
140
2.5
141
2.5
143
0.0393700787
147
0.625
171
     3
172
     1
178
     0
271
     2
272
     2
274
     3
278
    44
283
     0
284
     8
340
11
  0
ENDTAB
  0
TABLE
  2
BLOCK_RECORD
  5
1
330
0
100
AcDbSymbolTable
 70
     1
  0
BLOCK_RECORD
  5
1F
330
1
100
AcDbSymbolTableRecord
100
AcDbBlockTableRecord
  2
*Model_Space
340
22
  0
BLOCK_RECORD
  5
1B
330
1
100
AcDbSymbolTableRecord
100
AcDbBlockTableRecord
  2
*Paper_Space
340
1E
  0
BLOCK_RECORD
  5
23
330
1
100
AcDbSymbolTableRecord
100
AcDbBlockTableRecord
  2
*Paper_Space0
340
26
  0
ENDTAB
  0
ENDSEC
  0
SECTION
  2
BLOCKS
  0
BLOCK
  5
20
330
1F
100
AcDbEntity
  8
0
100
AcDbBlockBegin
  2
*Model_Space
 70
     0
 10
0.0
 20
0.0
 30
0.0
  3
*Model_Space
  1

  0
ENDBLK
  5
21
330
1F
100
AcDbEntity
  8
0
100
AcDbBlockEnd
  0
BLOCK
  5
1C
330
1B
100
AcDbEntity
 67
     1
  8
0
100
AcDbBlockBegin
  2
*Paper_Space
 70
     0
 10
0.0
 20
0.0
 30
0.0
  3
*Paper_Space
  1

  0
ENDBLK
  5
1D
330
1B
100
AcDbEntity
 67
     1
  8
0
100
AcDbBlockEnd
  0
BLOCK
  5
24
330
23
100
AcDbEntity
  8
0
100
AcDbBlockBegin
  2
*Paper_Space0
 70
     0
 10
0.0
 20
0.0
 30
0.0
  3
*Paper_Space0
  1

  0
ENDBLK
  5
25
330
23
100
AcDbEntity
  8
0
100
AcDbBlockEnd
  0
ENDSEC
  0
SECTION
  2
ENTITIES
  0
LINE
  5
74
330
1F
100
AcDbEntity
  8
0
  6
Continuous
 62
     7
370
    60
100
AcDbLine
 10
286.321265417
 20
11.777218853
 30
0.0
 11
411.721265417
 21
11.777218853
 31
0.0
  0
LINE
  5
75
330
1F
100
AcDbEntity
  8
0
  6
Continuous
 62
     7
370
    40
100
AcDbLine
 10
392.9106408019
 20
11.777218853
 30
0.0
 11
392.9106408019
 21
16.027218853
 31
0.0
  0
LINE
  5
76
330
1F
100
AcDbEntity
  8
0
  6
Continuous
 62
     7
370
    60
100
AcDbLine
 10
411.721265417
 20
62.6364458532
 30
0.0
 11
411.721265417
 21
11.777218853
 31
0.0
  0
LINE
  5
77
330
1F
100
AcDbEntity
  8
0
  6
Continuous
 62
     7
370
    40
100
AcDbLine
 10
411.721265417
 20
16.027218853
 30
0.0
 11
330.521265417
 21
16.027218853
 31
0.0
  0
LINE
  5
78
330
1F
100
AcDbEntity
  8
0
  6
Continuous
 62
     7
370
    40
100
AcDbLine
 10
296.0889951925
 20
50.1577939061
 30
0.0
 11
296.0889951925
 21
28.777218853
 31
0.0
  0
LINE
  5
79
330
1F
100
AcDbEntity
  8
0
  6
Continuous
 62
     7
370
    60
100
AcDbLine
 10
286.321265417
 20
11.777218853
 30
0.0
 11
286.321265417
 21
62.6364458532
 31
0.0
  0
LINE
  5
7A
330
1F
100
AcDbEntity
  8
0
  6
Continuous
 62
     7
370
    60
100
AcDbLine
 10
286.321265417
 20
6.8799778979
 30
0.0
 11
286.321265417
 21
11.777218853
 31
0.0
  0
LINE
  5
7B
330
1F
100
AcDbEntity
  8
0
  6
Continuous
 62
     7
370
    60
100
AcDbLine
 10
411.721265417
 20
6.8799778979
 30
0.0
 11
411.721265417
 21
11.9593021616
 31
0.0
  0
LINE
  5
7C
330
1F
100
AcDbEntity
  8
0
  6
Continuous
 62
     7
370
    40
100
AcDbLine
 10
411.721265417
 20
50.027218853
 30
0.0
 11
286.321265417
 21
50.1688238879
 31
0.0
  0
LINE
  5
7D
330
1F
100
AcDbEntity
  8
0
  6
Continuous
 62
     7
370
    40
100
AcDbLine
 10
286.321265417
 20
62.6364458532
 30
0.0
 11
411.721265417
 21
62.6364458532
 31
0.0
  0
LINE
  5
7E
330
1F
100
AcDbEntity
  8
0
  6
Continuous
 62
     7
370
    40
100
AcDbLine
 10
330.521265417
 20
33.027218853
 30
0.0
 11
286.321265417
 21
33.027218853
 31
0.0
  0
LINE
  5
7F
330
1F
100
AcDbEntity
  8
0
  6
Continuous
 62
     7
370
    40
100
AcDbLine
 10
330.521265417
 20
37.277218853
 30
0.0
 11
286.321265417
 21
37.277218853
 31
0.0
  0
LINE
  5
80
330
1F
100
AcDbEntity
  8
0
  6
Continuous
 62
     7
370
    40
100
AcDbLine
 10
330.521265417
 20
41.527218853
 30
0.0
 11
286.321265417
 21
41.527218853
 31
0.0
  0
LINE
  5
81
330
1F
100
AcDbEntity
  8
0
  6
Continuous
 62
     7
370
    40
100
AcDbLine
 10
330.521265417
 20
45.777218853
 30
0.0
 11
286.321265417
 21
45.777218853
 31
0.0
  0
LINE
  5
82
330
1F
100
AcDbEntity
  8
0
  6
Continuous
 62
     7
370
    40
100
AcDbLine
 10
411.721265417
 20
6.8799778979
 30
0.0
 11
286.321265417
 21
6.8799778979
 31
0.0
  0
LINE
  5
83
330
1F
100
AcDbEntity
  8
0
  6
Continuous
 62
     7
370
    40
100
AcDbLine
 10
286.321265417
 20
28.777218853
 30
0.0
 11
411.721265417
 21
28.777218853
 31
0.0
  0
LINE
  5
84
330
1F
100
AcDbEntity
  8
0
  6
Continuous
 62
     7
370
    40
100
AcDbLine
 10
330.521265417
 20
62.6364458532
 30
0.0
 11
330.521265417
 21
11.777218853
 31
0.0
  0
LINE
  5
85
330
1F
100
AcDbEntity
  8
0
  6
Continuous
 62
     7
370
    40
100
AcDbLine
 10
346.8608878196
 20
11.777218853
 30
0.0
 11
346.8608878196
 21
16.027218853
 31
0.0
  0
LINE
  5
86
330
1F
100
AcDbEntity
  8
0
  6
Continuous
 62
     7
370
    40
100
AcDbLine
 10
383.6877823236
 20
16.027218853
 30
0.0
 11
383.6877823236
 21
28.777218853
 31
0.0
  0
MTEXT
  5
88
330
1F
100
AcDbEntity
  8
0
  6
Continuous
 62
     7
370
     0
100
AcDbMText
 10
290.5556832125
 20
21.3518090722
 30
0.0
 40
3.5
 41
0.0
 71
     1
 72
     1
  1
3mm UV acrylic
  7
SLDTEXTSTYLE0
 73
     1
 44
1.0
  0
MTEXT
  5
89
330
1F
100
AcDbEntity
  8
0
  6
Continuous
 62
     7
370
     0
100
AcDbMText
 10
343.762219766
 20
42.1654734059
 30
0.0
 40
4.7625
 41
0.0
 71
     1
 72
     1
  1
Anti UVFront door
  7
SLDTEXTSTYLE0
 73
     1
 44
1.0
  0
MTEXT
  5
8A
330
1F
100
AcDbEntity
  8
0
  6
Continuous
 62
     7
370
     0
100
AcDbMText
 10
385.1070924195
 20
26.9386320247
 30
0.0
 40
1.5
 41
0.0
 71
     1
 72
     1
  1
Tamaño plano
  7
SLDTEXTSTYLE0
 73
     1
 44
1.0
  0
MTEXT
  5
8B
330
1F
100
AcDbEntity
  8
0
  6
Continuous
 62
     7
370
     0
100
AcDbMText
 10
287.6330453202
 20
48.614858887
 30
0.0
 40
1.5
 41
0.0
 71
     1
 72
     1
  1
DIBUJ.
  7
SLDTEXTSTYLE0
 73
     1
 44
1.0
  0
MTEXT
  5
8C
330
1F
100
AcDbEntity
  8
0
  6
Continuous
 62
     7
370
     0
100
AcDbMText
 10
287.6708984701
 20
44.3377347429
 30
0.0
 40
1.5
 41
0.0
 71
     1
 72
     1
  1
VERIF.
  7
SLDTEXTSTYLE0
 73
     1
 44
1.0
  0
MTEXT
  5
8D
330
1F
100
AcDbEntity
  8
0
  6
Continuous
 62
     7
370
     0
100
AcDbMText
 10
287.7537519088
 20
40.1938091861
 30
0.0
 40
1.5
 41
0.0
 71
     1
 72
     1
  1
APROB.
  7
SLDTEXTSTYLE0
 73
     1
 44
1.0
  0
MTEXT
  5
8E
330
1F
100
AcDbEntity
  8
0
  6
Continuous
 62
     7
370
     0
100
AcDbMText
 10
287.9349610163
 20
35.7072212158
 30
0.0
 40
1.5
 41
0.0
 71
     1
 72
     1
  1
FABR.
  7
SLDTEXTSTYLE0
 73
     1
 44
1.0
  0
MTEXT
  5
8F
330
1F
100
AcDbEntity
  8
0
  6
Continuous
 62
     7
370
     0
100
AcDbMText
 10
288.2049617786
 20
31.6053673919
 30
0.0
 40
1.5
 41
0.0
 71
     1
 72
     1
  1
CALID.
  7
SLDTEXTSTYLE0
 73
     1
 44
1.0
  0
MTEXT
  5
90
330
1F
100
AcDbEntity
  8
0
  6
Continuous
 62
     7
370
     0
100
AcDbMText
 10
354.3568340198
 20
14.6773061276
 30
0.0
 40
1.5
 41
0.0
 71
     1
 72
     1
  1
LAS COTAS SE EXPRESAN EN MM
  7
SLDTEXTSTYLE0
 73
     1
 44
1.0
  0
MTEXT
  5
91
330
1F
100
AcDbEntity
  8
0
  6
Continuous
 62
     7
370
     0
100
AcDbMText
 10
287.701449066
 20
61.2843177594
 30
0.0
 40
1.5
 41
0.0
 71
     1
 72
     1
  1
PROYECTO:
  7
SLDTEXTSTYLE0
 73
     1
 44
1.0
  0
MTEXT
  5
92
330
1F
100
AcDbEntity
  8
0
  6
Continuous
 62
     7
370
     0
100
AcDbMText
 10
287.3671277258
 20
27.7632751423
 30
0.0
 40
1.5
 41
0.0
 71
     1
 72
     1
  1
MATERIAL:
  7
SLDTEXTSTYLE0
 73
     1
 44
1.0
  0
MTEXT
  5
93
330
1F
100
AcDbEntity
  8
0
  6
Continuous
 62
     7
370
     0
100
AcDbMText
 10
331.5783533637
 20
48.3533980743
 30
0.0
 40
1.5
 41
0.0
 71
     1
 72
     1
  1
TÍTULO:
  7
SLDTEXTSTYLE0
 73
     1
 44
1.0
  0
MTEXT
  5
94
330
1F
100
AcDbEntity
  8
0
  6
Continuous
 62
     7
370
     0
100
AcDbMText
 10
331.7952315345
 20
27.7632751423
 30
0.0
 40
1.5
 41
0.0
 71
     1
 72
     1
  1
N.º DE DIBUJO
  7
SLDTEXTSTYLE0
 73
     1
 44
1.0
  0
MTEXT
  5
95
330
1F
100
AcDbEntity
  8
0
  6
Continuous
 62
     7
370
     0
100
AcDbMText
 10
331.7952315345
 20
14.6773061276
 30
0.0
 40
1.5
 41
0.0
 71
     1
 72
     1
  1
ESCALA: 1:1
  7
SLDTEXTSTYLE0
 73
     1
 44
1.0
  0
MTEXT
  5
97
330
1F
100
AcDbEntity
  8
0
  6
Continuous
 62
     7
370
     0
100
AcDbMText
 10
396.5444863093
 20
14.6773061276
 30
0.0
 40
1.5
 41
0.0
 71
     1
 72
     1
  1
HOJA 1 DE 1
  7
SLDTEXTSTYLE1
 73
     1
 44
1.0
  0
MTEXT
  5
98
330
1F
100
AcDbEntity
  8
0
  6
Continuous
 62
     7
370
     0
100
AcDbMText
 10
385.4316725101
 20
23.1974199119
 30
0.0
 40
2.9104166667
 41
0.0
 71
     1
 72
     1
  1
1200x800mm
  7
SLDTEXTSTYLE0
 73
     1
 44
1.0
  0
MTEXT
  5
99
330
1F
100
AcDbEntity
  8
0
  6
Continuous
 62
     7
370
     0
100
AcDbMText
 10
366.4741622232
 20
25.3841300531
 30
0.0
 40
6.35
 41
0.0
 71
     2
 72
     1
  1
1
  7
SLDTEXTSTYLE0
 73
     1
 44
1.0
  0
MTEXT
  5
9A
330
1F
100
AcDbEntity
  8
0
  6
Continuous
 62
     7
370
     0
100
AcDbMText
 10
288.9818591466
 20
9.8875399766
 30
0.0
 40
1.5
 41
0.0
 71
     1
 72
     1
  1
SolidRay by kitprinter3d is licensed under a Creative Commons Attribution-NonCommercial-ShareAlike 4.0 International License.
  7
SLDTEXTSTYLE0
 73
     1
 44
1.0
  0
MTEXT
  5
9B
330
1F
100
AcDbEntity
  8
0
  6
Continuous
 62
     7
370
     0
100
AcDbMText
 10
295.0534746471
 20
57.6883329863
 30
0.0
 40
4.2333333333
 41
0.0
 71
     1
 72
     1
  1
SolidRay
  7
SLDTEXTSTYLE0
 73
     1
 44
1.0
  0
MTEXT
  5
9D
330
1F
100
AcDbEntity
  8
0
  6
Continuous
 62
     7
370
     0
100
AcDbMText
 10
350.5303445723
 20
57.9121374869
 30
0.0
 40
6.35
 41
0.0
 71
     1
 72
     1
  1
kitprinter3d
  7
SLDTEXTSTYLE2
 73
     1
 44
1.0
  0
ARC
  5
9E
330
1F
100
AcDbEntity
  8
0
  6
Continuous
 62
     7
370
    15
100
AcDbCircle
 10
322.0459869244
 20
105.9392597757
 30
0.0
 40
8.0
100
AcDbArc
 50
270.0
 51
0.0
  0
ARC
  5
9F
330
1F
100
AcDbEntity
  8
0
  6
Continuous
 62
     7
370
    15
100
AcDbCircle
 10
101.0459869244
 20
105.9392597757
 30
0.0
 40
8.000000000000014
100
AcDbArc
 50
180.0
 51
270.0
  0
ARC
  5
A0
330
1F
100
AcDbEntity
  8
0
  6
Continuous
 62
     7
370
    15
100
AcDbCircle
 10
101.0459869244
 20
231.1392597757
 30
0.0
 40
8.000000000000028
100
AcDbArc
 50
90.0
 51
180.0
  0
ARC
  5
A1
330
1F
100
AcDbEntity
  8
0
  6
Continuous
 62
     7
370
    15
100
AcDbCircle
 10
322.0459869244
 20
231.1392597757
 30
0.0
 40
8.0
100
AcDbArc
 50
0.0
 51
90.0
  0
CIRCLE
  5
A2
330
1F
100
AcDbEntity
  8
0
  6
Continuous
 62
     7
370
    15
100
AcDbCircle
 10
287.0459869244
 20
229.1392597757
 30
0.0
 40
2.099999999999994
  0
CIRCLE
  5
A3
330
1F
100
AcDbEntity
  8
0
  6
Continuous
 62
     7
370
    15
100
AcDbCircle
 10
117.0459869244
 20
229.1392597757
 30
0.0
 40
2.099999999999994
  0
CIRCLE
  5
A4
330
1F
100
AcDbEntity
  8
0
  6
Continuous
 62
     7
370
    15
100
AcDbCircle
 10
128.0459869244
 20
229.1392597757
 30
0.0
 40
2.099999999999994
  0
CIRCLE
  5
A5
330
1F
100
AcDbEntity
  8
0
  6
Continuous
 62
     7
370
    15
100
AcDbCircle
 10
211.5459869244
 20
117.9392597757
 30
0.0
 40
2.099999999999994
  0
CIRCLE
  5
A6
330
1F
100
AcDbEntity
  8
0
  6
Continuous
 62
     7
370
    15
100
AcDbCircle
 10
298.0459869244
 20
229.1392597757
 30
0.0
 40
2.099999999999994
  0
LINE
  5
A7
330
1F
100
AcDbEntity
  8
0
  6
Continuous
 62
     7
370
    15
100
AcDbLine
 10
93.0459869244
 20
231.1392597757
 30
0.0
 11
93.0459869244
 21
105.9392597757
 31
0.0
  0
LINE
  5
A8
330
1F
100
AcDbEntity
  8
0
  6
Continuous
 62
     7
370
    15
100
AcDbLine
 10
101.0459869244
 20
97.9392597757
 30
0.0
 11
322.0459869244
 21
97.9392597757
 31
0.0
  0
LINE
  5
A9
330
1F
100
AcDbEntity
  8
0
  6
Continuous
 62
     7
370
    15
100
AcDbLine
 10
330.0459869244
 20
231.1392597757
 30
0.0
 11
330.0459869244
 21
105.9392597757
 31
0.0
  0
LINE
  5
AA
330
1F
100
AcDbEntity
  8
0
  6
Continuous
 62
     7
370
    15
100
AcDbLine
 10
101.0459869244
 20
239.1392597757
 30
0.0
 11
322.0459869244
 21
239.1392597757
 31
0.0
  0
OLE2FRAME
  5
AB
330
1F
100
AcDbEntity
  8
0
100
AcDbOle2Frame
 70
     2
  3
Microsoft Word Document
 10
325.2323132137
 20
72.7290394309
 30
0.0
 11
474.8282241847
 21
59.9196036291
 31
0.0
 71
     2
 72
     0
 73
     1
 90
    21632
310
8055A6720F8EB7537440CE410095A82E5240000000000000000062B1006840AD
310
7D40CE410095A82E5240000000000000000062B1006840AD7D40530A5C92B5F5
310
4D400000000000000000A6720F8EB7537440530A5C92B5F54D40000000000000
310
0000000000000100000000010000010000000100000000000100000000540000
310
D0CF11E0A1B11AE1000000000000000000000000000000003E000300FEFF0900
310
0600000000000000000000000100000001000000000000000010000002000000
310
01000000FEFFFFFF0000000000000000FFFFFFFFFFFFFFFFFFFFFFFFFFFFFFFF
310
FFFFFFFFFFFFFFFFFFFFFFFFFFFFFFFFFFFFFFFFFFFFFFFFFFFFFFFFFFFFFFFF
310
FFFFFFFFFFFFFFFFFFFFFFFFFFFFFFFFFFFFFFFFFFFFFFFFFFFFFFFFFFFFFFFF
310
FFFFFFFFFFFFFFFFFFFFFFFFFFFFFFFFFFFFFFFFFFFFFFFFFFFFFFFFFFFFFFFF
310
FFFFFFFFFFFFFFFFFFFFFFFFFFFFFFFFFFFFFFFFFFFFFFFFFFFFFFFFFFFFFFFF
310
FFFFFFFFFFFFFFFFFFFFFFFFFFFFFFFFFFFFFFFFFFFFFFFFFFFFFFFFFFFFFFFF
310
FFFFFFFFFFFFFFFFFFFFFFFFFFFFFFFFFFFFFFFFFFFFFFFFFFFFFFFFFFFFFFFF
310
FFFFFFFFFFFFFFFFFFFFFFFFFFFFFFFFFFFFFFFFFFFFFFFFFFFFFFFFFFFFFFFF
310
FFFFFFFFFFFFFFFFFFFFFFFFFFFFFFFFFFFFFFFFFFFFFFFFFFFFFFFFFFFFFFFF
310
FFFFFFFFFFFFFFFFFFFFFFFFFFFFFFFFFFFFFFFFFFFFFFFFFFFFFFFFFFFFFFFF
310
FFFFFFFFFFFFFFFFFFFFFFFFFFFFFFFFFFFFFFFFFFFFFFFFFFFFFFFFFFFFFFFF
310
FFFFFFFFFFFFFFFFFFFFFFFFFFFFFFFFFFFFFFFFFFFFFFFFFFFFFFFFFFFFFFFF
310
FFFFFFFFFFFFFFFFFFFFFFFFFFFFFFFFFFFFFFFFFFFFFFFFFFFFFFFFFFFFFFFF
310
FFFFFFFFFFFFFFFFFFFFFFFFFFFFFFFFFFFFFFFFFFFFFFFFFFFFFFFFFFFFFFFF
310
FDFFFFFF21000000FEFFFFFF1F00000005000000060000000700000008000000
310
090000000A0000000B0000000C0000000D0000000E0000000F00000010000000
310
1100000012000000130000001400000015000000160000001700000018000000
310
190000001A0000001B0000001C0000001D0000001E000000FEFFFFFF20000000
310
22000000FEFFFFFF230000002400000025000000260000002700000028000000
310
FEFFFFFFFFFFFFFFFFFFFFFFFFFFFFFFFFFFFFFFFFFFFFFFFFFFFFFFFFFFFFFF
310
FFFFFFFFFFFFFFFFFFFFFFFFFFFFFFFFFFFFFFFFFFFFFFFFFFFFFFFFFFFFFFFF
310
FFFFFFFFFFFFFFFFFFFFFFFFFFFFFFFFFFFFFFFFFFFFFFFFFFFFFFFFFFFFFFFF
310
FFFFFFFFFFFFFFFFFFFFFFFFFFFFFFFFFFFFFFFFFFFFFFFFFFFFFFFFFFFFFFFF
310
FFFFFFFFFFFFFFFFFFFFFFFFFFFFFFFFFFFFFFFFFFFFFFFFFFFFFFFFFFFFFFFF
310
FFFFFFFFFFFFFFFFFFFFFFFFFFFFFFFFFFFFFFFFFFFFFFFFFFFFFFFFFFFFFFFF
310
FFFFFFFFFFFFFFFFFFFFFFFFFFFFFFFFFFFFFFFFFFFFFFFFFFFFFFFFFFFFFFFF
310
FFFFFFFFFFFFFFFFFFFFFFFFFFFFFFFFFFFFFFFFFFFFFFFFFFFFFFFFFFFFFFFF
310
FFFFFFFFFFFFFFFFFFFFFFFFFFFFFFFFFFFFFFFFFFFFFFFFFFFFFFFFFFFFFFFF
310
FFFFFFFFFFFFFFFFFFFFFFFFFFFFFFFFFFFFFFFFFFFFFFFFFFFFFFFFFFFFFFFF
310
FFFFFFFFFFFFFFFFFFFFFFFFFFFFFFFFFFFFFFFFFFFFFFFFFFFFFFFFFFFFFFFF
310
52006F006F007400200045006E00740072007900000000000000000000000000
310
0000000000000000000000000000000000000000000000000000000000000000
310
16000500FFFFFFFFFFFFFFFF020000009B4C75F4F564404B8AF4679732AC0607
310
0000000000000000000000004076C7AEC70BD101030000000014000000000000
310
01004F006C006500000000000000000000000000000000000000000000000000
310
0000000000000000000000000000000000000000000000000000000000000000
310
0A000201FFFFFFFFFFFFFFFFFFFFFFFF00000000000000000000000000000000
310
0000000000000000000000000000000000000000000000001400000000000000
310
5000610063006B00610067006500000000000000000000000000000000000000
310
0000000000000000000000000000000000000000000000000000000000000000
310
100002010100000003000000FFFFFFFF00000000000000000000000000000000
310
0000000000000000000000000000000000000000040000002334000000000000
310
02004F006C006500500072006500730030003000300000000000000000000000
310
0000000000000000000000000000000000000000000000000000000000000000
310
18000201FFFFFFFF04000000FFFFFFFF00000000000000000000000000000000
310
0000000000000000000000000000000000000000010000006004000000000000
310
FEFFFFFF02000000030000000400000005000000060000000700000008000000
310
090000000A0000000B0000000C0000000D0000000E0000000F00000010000000
310
1100000012000000FEFFFFFF1400000015000000160000001700000018000000
310
190000001A0000001B0000001C0000001D0000001E0000001F00000020000000
310
2100000022000000230000002400000025000000260000002700000028000000
310
290000002A0000002B0000002C0000002D0000002E0000002F00000030000000
310
3100000032000000330000003400000035000000360000003700000038000000
310
390000003A0000003B0000003C0000003D0000003E0000003F00000040000000
310
4100000042000000430000004400000045000000460000004700000048000000
310
490000004A0000004B0000004C0000004D0000004E0000004F000000FEFFFFFF
310
FFFFFFFFFFFFFFFFFFFFFFFFFFFFFFFFFFFFFFFFFFFFFFFFFFFFFFFFFFFFFFFF
310
FFFFFFFFFFFFFFFFFFFFFFFFFFFFFFFFFFFFFFFFFFFFFFFFFFFFFFFFFFFFFFFF
310
FFFFFFFFFFFFFFFFFFFFFFFFFFFFFFFFFFFFFFFFFFFFFFFFFFFFFFFFFFFFFFFF
310
FFFFFFFFFFFFFFFFFFFFFFFFFFFFFFFFFFFFFFFFFFFFFFFFFFFFFFFFFFFFFFFF
310
FFFFFFFFFFFFFFFFFFFFFFFFFFFFFFFFFFFFFFFFFFFFFFFFFFFFFFFFFFFFFFFF
310
FFFFFFFFFFFFFFFFFFFFFFFFFFFFFFFFFFFFFFFFFFFFFFFFFFFFFFFFFFFFFFFF
310
0100000200000000000000000000000000000000000000000000000000000000
310
0000000000000000000000000000000000000000000000000000000000000000
310
FFFFFFFF030000000400000001000000FFFFFFFF0200000000000000983A0000
310
19050000F2030000010009000003F901000005001F0000000000040000000301
310
0800050000000B0200000000050000000C023501D60D040000002E0118001C00
310
0000FB02A4FF00000000000090010000000004400031436F7572696572204E65
310
77000000000000000000000000000000000000000000040000002D0100000400
310
00002D010000040000002D0100001C000000FB02A4FF00000000000090010000
310
000004400022417269616C000000000000000000000000000000000000000000
310
000000000000040000002D010100040000002D010100040000002D0101001C00
310
0000FB02A4FF0000000000009001000000000440002243616C69627269000000
310
00000000000000000000000000000000000000000000040000002D0102000400
310
00002D010200040000002D0102000400000002010100040000002D0100000400
310
00002D010000040000002D010000050000000902000000020D000000320A5600
310
C2010100040000000000D70D34016F003700040000002D010100040000002D01
310
0100040000002D010100050000000902000000020D000000320A5600F9010100
310
504B03041400060008000000210032916F5766010000A5050000130008025B43
310
6F6E74656E745F54797065735D2E786D6C20A2040228A0000200000000000000
310
0000000000000000000000000000000000000000000000000000000000000000
310
0000000000000000000000000000000000000000000000000000000000000000
310
0000000000000000000000000000000000000000000000000000000000000000
310
0000000000000000000000000000000000000000000000000000000000000000
310
0000000000000000000000000000000000000000000000000000000000000000
310
0000000000000000000000000000000000000000000000000000000000000000
310
0000000000000000000000000000000000000000000000000000000000000000
310
0000000000000000000000000000000000000000000000000000000000000000
310
0000000000000000000000000000000000000000000000000000000000000000
310
0000000000000000000000000000000000000000000000000000000000000000
310
0000000000000000000000000000000000000000000000000000000000000000
310
0000000000000000000000000000000000000000000000000000000000000000
310
0000000000000000000000000000000000000000000000000000000000000000
310
0000000000000000000000000000000000000000000000000000000000000000
310
0000000000000000000000000000000000000000000000000000000000000000
310
00000000000000000000000000000000000000000000000000B494CB6AC33010
310
45F785FE83D1B6D84ABA28A5C4C9A28F651B68FA018A344E44F542A3BCFEBEE3
310
3831A5243134C9C620CFDC7BCF083183D1DA9A6C0911B57725EB173D9681935E
310
69372BD9D7E42D7F641926E19430DE41C936806C34BCBD194C36013023B5C392
310
CD530A4F9CA39C831558F8008E2A958F56243AC6190F427E8B19F0FB5EEF814B
310
EF12B894A7DA830D072F50898549D9EB9A7E3724110CB2ECB969ACB34A264230
310
5A8A4475BE74EA4F4ABE4B2848B9EDC1B90E78470D8C1F4CA82BC70376BA0FBA
310
9AA815646311D3BBB0D4C5573E2AAEBC5C585216A76D0E70FAAAD2125A7DED16
310
A2978048776E4DD156ACD06ECF7F94C32DEC1422292F0FD25A774260DA18C0CB
310
1334BEDDF1901209AE01B073EE4458C1F4F36A14BFCC3B412ACA9D88A981CB63
310
B4D69D1089D60034DFFED91C5B9B5391D4398E3E20AD95F88FB1F77BA356E734
310
708098F4E957D72692F5D9F341BD9214A803D97CBB64873F000000FFFF030050
310
4B0304140006000800000021001E911AB7EF0000004E0200000B0008025F7265
310
6C732F2E72656C7320A2040228A0000200000000000000000000000000000000
310
0000000000000000000000000000000000000000000000000000000000000000
310
0000000000000000000000000000000000000000000000000000000000000000
310
0000000000000000000000000000000000000000000000000000000000000000
310
0000000000000000000000000000000000000000000000000000000000000000
310
0000000000000000000000000000000000000000000000000000000000000000
310
0000000000000000000000000000000000000000000000000000000000000000
310
0000000000000000000000000000000000000000000000000000000000000000
310
0000000000000000000000000000000000000000000000000000000000000000
310
0000000000000000000000000000000000000000000000000000000000000000
310
0000000000000000000000000000000000000000000000000000000000000000
310
0000000000000000000000000000000000000000000000000000000000000000
310
0000000000000000000000000000000000000000000000000000000000000000
310
0000000000000000000000000000000000000000000000000000000000000000
310
0000000000000000000000000000000000000000000000000000000000000000
310
0000000000000000000000000000000000000000000000000000000000000000
310
00000000000000000000000000000000AC92C16AC3300C40EF83FD83D1BD51DA
310
C118A34E2F63D0DB18D907085B494C13DBD86AD7FEFD3CD8D8025DE96147CBD2
310
D393D07A739C4675E0945DF01A96550D8ABD09D6F95EC35BFBBC78009585BCA5
310
3178D670E20C9BE6F666FDCA234929CA838B59158ACF1A0691F88898CDC013E5
310
2A44F6E5A70B692229CFD46324B3A39E7155D7F7987E33A09931D5D66A485B7B
310
07AA3D45BE861DBACE197E0A663FB197332D908FC2DEB25DC454EA93B8328D6A
310
29F52C1A6C302F259C9162AC0A1AF0BCD1EA7AA3BFA7C589852C09A109892FFB
310
7C665C125AFEE78AE6193F36EF2159B45FE16F1B9C5D41F3010000FFFF030050
310
4B030414000600080000002100B3BE8B1D05010000B60300001C000801776F72
310
642F5F72656C732F646F63756D656E742E786D6C2E72656C7320A2040128A000
310
0100000000000000000000000000000000000000000000000000000000000000
310
0000000000000000000000000000000000000000000000000000000000000000
310
0000000000000000000000000000000000000000000000000000000000000000
310
0000000000000000000000000000000000000000000000000000000000000000
310
0000000000000000000000000000000000000000000000000000000000000000
310
0000000000000000000000000000000000000000000000000000000000000000
310
0000000000000000000000000000000000000000000000000000000000000000
310
0000000000000000000000000000000000000000000000000000000000000000
310
00AC93CD6AC3301084EF85BE83D87B2D3B6D4309917329815C5BF701647BFD43
310
F563A44D5ABF7D454A128706D3838E336267BE85D57AF3AD153BA0F3BD3502B2
310
240586A6B2756F5A011FC5F6E1059827696AA9AC4101237AD8E4F777EB375492
310
C290EFFAC1B39062BC808E685871EEAB0EB5F4891DD08497C63A2D2948D7F241
310
569FB245BE48D32577D30CC8AF32D9AE16E076F523B0621CF03FD9B669FA0A5F
310
6DB5D768E84605F7481436F32153BA1649C0C9494216F0DB088BA808342A9C02
310
1CF55C7D16B3DEEC75892E6C7C21385B7310CB98101466F1027094BF6636C7F0
310
1C93A1B1860A59AA09C7D99A83788A09F185E5FB9F939C9827107EF5DBF21F00
310
0000FFFF0300504B0304140006000800000021003932F36E6702000012080000
310
11000000776F72642F646F63756D656E742E786D6CCC95CB72DB201486F79DE9
310
3B68D8DB124E6A3B9AC85934759A45673C75F30018218909B70164C57DFA1E74
310
B19DA6CD38F1A25D21CEE53B3F0701D7374F52445B661DD72A43789CA08829AA
310
73AECA0C3DFC588EE628729EA89C08AD588676CCA19BC5C70FD74D9A6B5A4BA6
310
7C0408E5D2C6D00C55DE9B348E1DAD98246E2C39B5DAE9C28FA996B12E0A4E59
310
DC689BC7930427ED97B19A32E7A0DE67A2B6C4A11E275FD2B4610A9C85B69278
310
98DA3296C43ED6660474433CDF70C1FD0ED8C974C0E80CD556A53D62B4171452
310
D24E503F0C19F694BA5DCA6DDF81B6626C99000D5AB98A9BC332DE4B03673540
310
B6AF2D622BC510D7187C79DE1EDC5AD2C070009E223FEF92A4E894BF4EC4C909
310
3B1210FB8C53243CAF39289184AB43E177B5E6A8B9F8D3DB0093DF01A63C6F73
310
EEACAECD81C6CFA3DDABC73D2B9CEC37B0FA4D3E5E9A3B4FCCBA22064EA0A4E9
310
7DA9B4251B018A60CB22E87A147E6BB4801B67A3F35D184DD4A47063E5DF3394
310
24C97CB6BC82F3DE9B6E59416AE15F7A56C134492617B3690B332BDB0E6BBF13
310
0C62B6446468652D2974CE04874B0FC52140D5B28BE4622B8638BCF7DDE7CF6C
310
F15182ED06415439C430357A58F771AD3BDE0B3939A549FD62226544A8DD094E
310
83DD77DE0EF77F7468F28F3B849FA2E59755F4558B9CD93FF6C831EA57F6EF8D
310
5A83FFC8DAB6A25CFF042F5C49185F8547A6492BF89ECE2FE6DD724DF98D04A4
310
D77073E24B3C6B61BCAC808467090ED38DF65ECB835BB0E2C85B31028233344B
310
E6615A68ED8FA665EDDB69D295A35A38B03A4328EB625A33BCCC779687B60BAE
310
D88A7B0A2A2FA66D523C2CBCFDEC4E547C78CC17BF000000FFFF0300504B0304
310
14000600080000002100381723332B0600008D1A000015000000776F72642F74
310
68656D652F7468656D65312E786D6CEC594D8B1B3718BE17FA1FC4DC1D7FCDF8
310
638937D8633B69B39B84AC9392A33C23CF28AB199991BCBB26044A722C144AD3
310
D24303BDF550DA0612E825FD35DBA6B429E42F54D2786CC99659DA6C602959C3
310
5A1FCFFBEAD1FB4A8F349ECB574E12028E50C6304D3B4EF552C501280D6888D3
310
A8E3DC190D4B2D07300ED310129AA28E3347CCB9B2FBE10797E10E8F518280B0
310
4FD90EEC3831E7D39D729905A219B24B748A52D137A15902B9A8665139CCE0B1
310
F09B9072AD52699413885307A430116E47C2068408DC9C4C70809CDDC2FD8088
310
7F2967B22120D981748E16361A363CACCA2F36673EC9C011241D478C14D2E311
310
3AE10E209071D1D1712AEACF29EF5E2E2F8D08DF62ABD90DD5DFC26E61101ED6
310
945D168D9786AEEBB98DEED2BF0210BE891B34078D4163E94F0160108899E65C
310
74ACD76BF7FADE02AB81F2A2C577BFD9AF570DBCE6BFBE81EF7AF263E015282F
310
BA1BF8E1D05FC55003E545CF129366CD770DBC02E5C5C606BE59E9F6DDA68157
310
A098E0F470035DF11A75BF98ED1232A1E49A15DEF6DC61B3B680AF50656D75E5
310
F629DFB6D612789F66430150C9851CA780CFA768020381F321C1E30C833D1CC5
310
62E14D614A9968AED42AC34A5DFC971F57955444E00E829A75DE14B08D26C907
310
B020C353DE713E165E1D0DF2E6E58F6F5E3E07A78F5E9C3EFAE5F4F1E3D3473F
310
5BACAEC134D2AD5E7FFFC5DF4F3F057F3DFFEEF593AFEC78A6E37FFFE9B3DF7E
310
FDD20EE43AF0D5D7CFFE78F1ECD5379FFFF9C3130BBC9BC1B10E1FE104317003
310
1D83DB341113B30C80C6D9BFB318C510EB16DD34623085D2C6821EF0D840DF98
310
43022DB81E32237837133261035E9DDD37081FC4D98C630BF07A9C18C07D4A49
310
8F66D6395D9763E95198A5917DF06CA6E36E4378641BDB5FCBEF603615EB1DDB
310
5CFA313268DE2222E5304229E240F6D143842C66F73036E2BA8F838C323AE1E0
310
1E063D88AD2119E1B1B19A5646D77022F232B71114F93662B37F17F428B1B9EF
310
A32313297605243697881861BC0A671C2656C630213A720FF2D846F2609E0546
310
C01917998E10A1601022C66C3637B3B941F7BA90177BDAF7C93C319119C78736
310
E41EA45447F6E9A11FC3646AE58CD358C77EC40EC51285E016E55612D4DC21B2
310
2EF200D3ADE9BE8B9191EEB3F7F61DA1ACF605227B66996D4B206AEEC7399940
310
A49C97D7F43CC1E999E2BE26EBDEBB957521A4AFBE7D6AD7DD0B29E8DD0C5B77
310
D4BA8C6FC3AD8BB74FB3105F7CEDEEC3597A0B89ED6281BE97EEF7D2FDBF97EE
310
6DFBF9FC057BA5D1EA125F5CD5959B64EBBD7D820939E07382F698527726A617
310
0E45A3AA28A3E563C23416C5C570062ECAA02A838CF24F308F0F623815C354D5
310
08115BB88E18985226CE07D56CF52D3BC82CD9A761DE5AAD164FA6C200F255BB
310
385F8A76711AF1BCB5D15C3D822DDDAB5AA41E950B02D2F6DF90D0063349D42D
310
249A45E31924D4CCCE8545DBC2A225DD6F65A1BE165911FB0F40F9B386E7E68C
310
C47A830485324FB97D91DD73CFF4B6609AD3AE59A6D7965CCF27D306096DB999
310
24B46518C310AD379F73AEDBAB941AF464283669345BEF22D75244D6B481A466
310
0D1C8B3D57F7849B004E3BCE44DC0C4531990A7F4CEA262451DA7102BE08F47F
310
519669C6781FB23887A9AE7CFE09E62803042762ADEB6920E98A5BB5D69473BC
310
A0E4DA958B1739F5A527194D2628E05B5A5655D1973BB1F6BE255856E84C903E
310
88C3633026B3EC361481F29A5519C01033BE8C6688336D71AFA2B826578BAD68
310
FC62B6DAA2904C63B838517431CFE1AABCA4A3CD43315D9F95595F4C661CC924
310
BDF5A97BB691ECD04473CB01224F4DBB7EBCBB435E63B5D27D83552EDDEB5AD7
310
2EB46EDB29F1F60782466D3598414D32B6505BB59AD4CEF142A00DB75C9ADBCE
310
88F33E0DD657AD3C208A7BA5AA6DBC9AA0E3FB62E5F7C5757546385354D18978
310
46F08B1F95732550AD85BA9C7030CB70C77950F1BAAE5FF3FC52A5E50D4A6EDD
310
AD945A5EB75EEA7A5EBD3AF0AA957EAFF6500485C749D5CBC71E8AE719325FBC
310
7B51ED1BEF5F92E29A7D29A04999AA7B705919ABF72FD59AF1FE25BF278391EC
310
7700169179D0A80DDBF576AF516AD7BBC392DBEFB54A6DBFD12BF51B7EB33FEC
310
FB5EAB3D7CE880230576BB75DF6D0C5AA546D5F74B6EA322E9B7DAA5A65BAB75
310
DD66B73570BB0F17B116332FBE8BF02A5EBBFF000000FFFF0300504B03041400
310
0600080000002100AF522C7A4B070000221B000011000000776F72642F736574
310
74696E67732E786D6CB4594B73E33612BE6FD5FE0797CEEB31DE20B5E3498120
310
B1496ABCD98ABC97BD512264B186AF02297B9C5FBF4D52B43C4E2BE52495B90C
310
850FFDC4D7CD26FCF1BBAF7575F5E8435FB6CDED8A7E20AB2BDFECDAA26C1E6E
310
57FFBD77D7D1EAAA1FF2A6C8ABB6F1B7AB67DFAFBEFBF4F7BF7D7C5AF77E1860
310
5B7F052A9A7E5DEF6E578761E8D63737FDEEE0EBBCFFD076BE0170DF863A1FE0
310
6778B8A9F3F0E5D85DEFDABACB87725B56E5F07CC30851AB939AF676750CCDFA
310
A4E2BA2E77A1EDDBFD308AACDBFDBEDCF9D37F8B44788FDD59246D77C7DA37C3
310
64F126F80A7C689BFE5076FDA2ADFEA3DA003C2C4A1E7F2B88C7BA5AF63D51F2
310
8E709FDA50BC48BCC7BD51A00BEDCEF73D1C505D2D0E96CDD9B0F895A217DB1F
310
C0F629C449158853323DBDF65CFE3E05EC8D82BE7A4F2433F4B9DC863CCC3C39
310
8551EFD63F3C346DC8B715B012C2B9028F569F8096BFB46D7DF5B4EE7CD8C1D9
310
00A70959DD8C0064A4DD6F867CF000F79DAFAA89E4BBCAE7A0F069FD10F21AE8
310
B9AC4C3285DFE7C76AB8CFB79BA1ED60D3630E7E6B12CDF0E1B93BF86622D1FF
310
A03C165C3039E3BB431EF2DDE0C3A6CB7760CDB6CD10DA6AD957B4FF6E070BA5
310
10E0A44E1253619C9F367391814493D710E9378573D7167EF4FC18CAF71FC628
310
3059A78B93A8A1169A42280B7F3F6678333C57DE81F39BF2176F9AE2C7633F94
310
A0718AFC4F78F05B0E405EC1F24FC089FBE7CE3B9F0F4748D35F646C3A095795
310
DD5D19421B7E680AE0CE5F66ACDCEF7D00032570F10EE85586F669CAF3F73E2F
310
A017FF49BB37AF69049DBDE897879FDB7658B612121B2296E218D13342A85022
310
C511C5358E706D2385225226A945112553E55044736E703B11352EC6119E3886
310
23DAC5B86F89CEE25321BC41AC48E4A9CEDF20A9D20ACF5B46051738A2E32CC1
310
104A3415A80794139BA2915241047E3E605F6768AEA9E4C46914D1345168DEA8
310
9656A339A05A9334BB80587EE2FF1B242696E276626A247A3ED410C60C8A248C
310
593C6F0EA88DB28A01E1299A1DC649127114919272346F4C6AE2D01CB0187CC3
310
EDC452E2796346C6199A039612A3D0536029D7046515207186C6C3895202CD28
310
273AC5ED704A538B669453A171AFB964F2828CE6B14579C01315A728AF79C644
310
86CA08A22389F240506628AA4DC43A33686509235283E64D64324BD0EC48C274
310
8656BDA4D439343B9201A97019CE1D451922155704F51A90143F53A959C4706D
310
9A33BC4A64C42C43FB9B840A76687664CCA314F5401146356A079044A2BE2946
310
E14583234A11D40325788277172589D5B83645238166542999E1AC52F04FA3D9
310
51065E74780E2CE11665A2B2D2C5780E32EE0CAA4D8FB1A21D490B95491C912C
310
4ED14E018D9CE3EF2C1D51612F202AC599A80DE3F85B465BAD357A3EDA694150
310
86444425119AEB882A6DD06A8C0457311A69244482F7C428E63246FB75940AB9
310
4CF36F1047548C7A104347C0678A98C37B06CD5B2C1514D705C4E0BD2A8E1955
310
28432E4F76317444899E696CC653459184640E97B1D0C470DF5249F10925762A
310
C3ABC4509AE1EF7A43654AD13335D05C148E709E66E8F94099461265A251D0AF
310
716DD0447056191802CC0544A616E59B89582AD1BC994868817B0D3352865689
310
31D449DC03C332FC7C4C0205846BB322B5684732A9E2F8DB2CE194E013711253
310
6B50EE24313709EA5B9208A92E20F2C22464211C86E6DA322A713B16061EFC7B
310
C172E8073802DD80A2FDCD2A66F139DE2A9D31F47CAC81510CAD129B5069D08E
310
64ADB2028F3485B913AD1FEBE0A5896A4B99E6F8B759CA558277975428827B90
310
4A9D683407A9A22C4679906AEE1C2E13F108FFD24B0DBBA42DE1193E57A58948
310
5394BD69A2E0DB0845A016623C522B638ADB7122C2BF9932F83AC3670A186EE1
310
8B1B45047778D5C3784238CAD1CCB048A0F164D0950DFA6D9665ECE5A2EC0DE2
310
784C508E3A287A7CEA7430DC2AD40E20CEA2913A2A238E66C73195E0F3B5E35C
310
E113A4E330ADE33202ECA067EAA43497101DE1339F838F29FCB49D86A91CD766
310
9472B8B684AB08F73A1386E3913A29E854253733D47FFA58AFC7DBE8FF84E569
310
BCBABBAA67099BD7DB50E65777E37DF5CDB8631BBE2465B3E05BBF6F837F8D6C
310
8EDB05BCBE9E81BECEABCA857CB7005338F5BA28FB2EF5FBE9B9BACBC3C359EF
310
694740570BBFFFF145D7786FEBC3BF427BEC66F429E4DD7C25B76CA1622678BD
310
2E9BE173592FEBFD71BB59A49A3C3CBF828E4DF1D36398F2744ECFD37A38F87A
310
BADAFC9C4F5774D35EDF5F679B39D9BB2A6CC6EB377F9777DD7C8BB77DA0B7AB
310
AA7C380C74BC781BE05791872FD38FED033B616CC2D88C4D3FF2DD1819EC3E3D
310
9CD7D8B2F66A1F5FD6F8794D2C6BE2BC269735795E53CB9A1AD70ECF9D0F55D9
310
7CB95DBD3C8EEBFBB6AADA275F7C7FC67FB53427A13FE49D4FE7BB70A0573B2F
310
9C2EC7FBABC7B5FF3A40D68A72585DF55D59D4F9D7F1E29D4D857EDA5DE5CFED
310
71F866EF888D9BBB6F3514F9902F5799DF084F147FE3CB7847BF2B818E9BE77A
310
7BBE5AFFC7EC7855F6C3C67779C887362CD83F278CCAE97A7EB807167F8183FD
310
D9EF93BCF7C55C48CB1FB73EFD1F0000FFFF0300504B03041400060008000000
310
21005B6DFD9309010000F101000014000000776F72642F77656253657474696E
310
67732E786D6C94D1C14A03311006E0BBE03B2CB9B7D9161559BA2D8854BC88A0
310
3E409ACEB6C14C26CCA4AEF5E91D6BAD482FF59649321F33FC93D93BC6EA0D58
310
02A5D68C86B5A920795A86B46ACDCBF37C706D2A292E2D5DA404ADD98298D9F4
310
FC6CD2373D2C9EA014FD29952A491AF4AD5997921B6BC5AF019D0C2943D2C78E
310
185DD19257161DBF6EF2C0136657C222C450B6765CD75766CFF0290A755DF070
310
4B7E8390CAAEDF32441529C93A64F9D1FA53B49E7899993C88E83E18BF3D7421
310
1D98D1C51184C133097565A8CBEC27DA51DA3EAA77278CBFC0E5FF80F10140DF
310
DCAF12B15B448D4027A9143353CD807209183E604E7CC3D40BB0FDBA763152FF
310
F870A785FD13D4F4130000FFFF0300504B0304140006000800000021002ACFE1
310
6A890B0000237100000F000000776F72642F7374796C65732E786D6CBC9D5B53
310
E33A12C7DFB76ABF832B4FBB0F0C84EB0C759853C0C0813A73E14C989D67C556
310
8816D9CAFA32C07EFA95643BB169CB71CBBD3C91C4E99F65FDFB2FA97D21BFFD
310
FE1CCBE0174F33A192B3C9F4DDDE24E049A822913C9C4D7EDC5FEFBC9F0459CE
310
92884995F0B3C90BCF26BF7FFCFBDF7E7B3ACDF217C9B3400392EC340ECF26CB
310
3C5F9DEEEE66E192C72C7BA7563CD11B172A8D59AEDFA60FBB314B1F8BD54EA8
310
E215CBC55C4891BFECEEEFED1D4F2A4C3A84A2160B11F24F2A2C629EE4367E37
310
E5521355922DC52AAB694F43684F2A8D56A90A7996E9838E65C98B9948D698E9
310
2100C5224C55A616F93B7D30558B2C4A874FF7ECAB586E004738C0FE1A1087A7
310
B70F894AD95CEADED72D09346CF251777FA4C24F7CC10A9967E66D7A97566FAB
310
77F6CFB54AF22C783A655928C4BDDEB386C442F36ECE934C4CF416CEB2FC3C13
310
AC73E3D2BCE8DC126679E3E30B1189C9AED963F65FBDF117936793FDFDFA934B
310
D382D66792250FF5673CDBB99A355BA23F4A767ED88FE69A7B3661E9CEECDC04
310
EE560756FE6D1CEEEAF53BBBE3150B85DD0F5BE45C67D6F478CF40A53089BC7F
310
F4A17EF3BD307DCB8A5C553BB180F2EF1ABB0B7A5C279C4EBF59E902BD952F3E
310
ABF09147B35C6F389BD87DE90F7FDCDEA542A53AD3CF261FEC3EF587331E8B1B
310
11453C697C31598A88FF5CF2E447C6A3CDE77F5DDB6CAD3E085591E8D7072753
310
9B05328BAE9E43BE32B9AFB726CC68F2D50448F3ED426C766EC3FF53C3A69512
310
5DF14BCECC00104C5F236CF351887D1391358EB69B59BC3A76FB2DD48E0EDE6A
310
47876FB5A3A3B7DAD1F15BEDE8E4AD76F4FEAD766431FFCF1D8924E2CFA511E1
310
6E00751BC7E14634C7613634C7E12534C7611534C7E10434C791E8688E238FD1
310
1C479A2238B90A5D59D848F60347B6F773B7CF117EDCED53821F77FB0CE0C7DD
310
3EE0FB71B78FEF7EDCEDC3B91F77FBE8EDC7DD3E58E3B9E5522BB8D5364BF2D1
310
2E5B2895272AE741CE9FC7D358A259B62AA2E199498FA7240749802947B66A22
310
1E4D0B997DBF3D43AC49FDE7F3DC1472815A040BF150A4BA981EDB709EFCE252
310
97B5018B22CD2304A63C2F52478FF8E474CA173CE549C829139B0E6A2AC12029
310
E239416EAED803198B271171F7D5449241619DD0BA7E5E1A930882A48E5998AA
310
F14D538C6C7CF82CB2F17D6520C145212527627DA54931CB1A5F1B58CCF8D2C0
310
62C657061633BE30686846D545158DA8A72A1A51875534A27E2BF393AADF2A1A
310
51BF5534A27EAB68E3FBED5EE4D20EF1CD55C774F8B9BB4BA9CC79ECD1ED9889
310
8784E905C0F8E9A63A671ADCB1943DA46CB50CCC59E96E6CF398B1FBB950D14B
310
704F31A7AD4954EB7A9B2297FAA845528CEFD0168DCA5C6B1E91BDD63C2283AD
310
79E32DF6452F93CD02ED86A69E9915F3BCD3B49634C8B433268B72413BDE6D2C
310
1F9F611B035C8B3423B34137962083BF9AE5AC919362E4DBB4727CC336ACF1B6
310
7A3D2A9136AF4212B452AAF0916618BE7959F15497658FA349D74A4AF5C4233A
310
E22C4F55996B4DCBEF5B490659FE2A5E2D59266CADD4420C9FEAEB2BE0C117B6
310
1A7D407792898446B7AB9D980919D0AD206EEEBF7C0EEED5CA9499A663688017
310
2ACF554CC6ACCE04FEE3279FFF93A681E7BA084E5E888EF69CE8F490855D0A82
310
49A624A98888A4979922112473A8E5FDC95FE68AA5110DED2EE5E54D27392722
310
CE58BC2A171D04DED2E3E2931E7F08564396F72F960A735E88CA54F724B0C669
310
C3AC98FF9B87E387BAAF2A203933F4ADC8EDF947BBD4B5D174B8F1CB84166EFC
310
12C1AAA9A70793BF0407DBC28D3FD8168EEA602F25CB32E1BC84EACDA33ADC9A
310
477DBCE38BBF8AA7A44A1785A4EBC01A48D6833590AC0B952CE224A33C62CB23
310
3C60CBA33E5EC294B13C82537296F7472A2232312C8C4A090BA392C1C2A834B0
310
305201C6DFA1D3808DBF4DA7011B7FAF4E09235A0234605479463AFD135DE569
310
C0A8F2CCC2A8F2CCC2A8F2CCC2A8F2ECE053C0170BBD08A69B621A48AA9C6B20
310
E9269A24E7F14AA52C7D21425E49FEC0084E9096B4BB542DCCD3082A296FE226
310
409A73D49270B15DE2A844FEC9E7644D332CCA76119C1165522A45746E6D33E1
310
D8C8F6BD6BDBC2EC931CA39B702759C8974A463C751C933B56D7CBB3F2B18CD7
310
CDB7CD1874DAF3B37858E6C16CB93EDBDFC41CEF6D8DAC0BF656D8F61D76F5F9
310
71FD3C4B57D8171E8922AE1B0A1FA6383E181E6C33BA157CB83D78B39268451E
310
0D8C84FB3CDE1EB95925B7224F0646C27DBE1F18697DDA8AECF3C327963E7626
310
C2495FFEAC6B3C47F29DF465D13AB873B77D89B48EEC4AC193BE2C6A5925380F
310
4373B500AA33CC33EEF861E671C7635CE4A660ECE4A60CF6951BD167B0EFFC97
310
30333B66D0B4FB5BDF3D01C67DBB881E3472FE55A8F2BC7DEB82D3F087BA6EF5
310
C229C978D0C939187EE1AA35CAB8FB71F070E3460C1E77DC88C103901B316824
310
7286A386243765F0D8E4460C1EA4DC08F468056704DC6805E371A3158CF719AD
310
20C567B41AB10A7023062F07DC08B45121026DD4112B053702655410EE655448
310
411B1522D0468508B451E1020C6754188F332A8CF7312AA4F8181552D0468508
310
B45121026D5488401B1522D046F55CDB3BC3BD8C0A2968A34204DAA8108136AA
310
5D2F8E302A8CC71915C6FB1815527C8C0A2968A34204DAA81081362A44A08D0A
310
1168A34204CAA820DCCBA89082362A44A08D0A1168A3968F1AFA1B15C6E38C0A
310
E37D8C0A293E468514B45121026D5488401B1522D0468508B4512102655410EE
310
655448411B1522D0468508B451EDC5C2114685F138A3C2781FA3428A8F512105
310
6D5488401B1522D0468508B45121026D5488401915847B191552D0468508B451
310
21A22F3FAB4B94AEDBECA7F8B39ECE3BF6875FBAAA1AF5BDF928771375301C55
310
B7CACD1AFE2CC285528F41E7838707B6DE1806117329943D45EDB8ACDEE4DA5B
310
2250173EBF5DF63FE1D3A48FFCA74BD5B310F69A29801F0E8D04E7540EFB52BE
310
19098ABCC3BE4C6F468255E761DFE8DB8C04D3E061DFA06B7D59DF94A2A72310
310
DC37CC3482A78EF0BED1BA110EBBB86F8C6E04C21EEE1B991B81B083FBC6E346
310
E0516006E7D7D14703FBE9787D7F2920F4A5638370E226F4A525D4AA1E8EA131
310
868AE6260C55CF4D182AA39B80D2D389C10BEB46A11576A3FCA48636C34AED6F
310
5437012B352478490D30FE524394B7D410E527351C18B1524302566AFFC1D94D
310
F0921A60FCA586286FA921CA4F6A389561A58604ACD49080957AE484ECC4F84B
310
0D51DE5243949FD4707187951A12B0524302566A48F0921A60FCA586286FA921
310
CA4F6A5025A3A58604ACD49080951A12BCA406187FA921CA5B6A88EA93DA9E45
310
69498D52B8118E5B8435027113722310373837023DAAA546B467B5D42078564B
310
50AB5A735CB5D414CD4D18AA9E9B3054463701A5A7138317D68D422BEC46F949
310
8DAB96BAA4F637AA9B80951A572D39A5C6554BBD52E3AAA55EA971D5925B6A5C
310
B5D42535AE5AEA92DA7F707613BCA4C6554BBD52E3AAA55EA971D5925B6A5CB5
310
D42535AE5AEA921A572D75493D72427662FCA5C6554BBD52E3AA25B7D4B86AA9
310
4B6A5CB5D42535AE5AEA921A572D39A5C6554BBD52E3AAA55EA971D5925B6A5C
310
B5D42535AE5AEA921A572D75498DAB969C52E3AAA55EA971D552AFD48E6A69F7
310
A9F5034C866D7F904C7F397F5971F33FB81B0FCC44E5FF20AD2E02DA2FDE46EB
310
1F4A32C1A62541F59354D5C7B6C1D50543FBBAFA55ADD6AF57253B7F5C54EDA9
310
7F9BCAE26183C2A56E5158FD8F254783AE0B7D443CE2AB34650BB54AF54B13F0
310
BA818E7FA96A1BB9E9AAFADB55D76F2E9996DF6B5D1E2D8FC0D1F2DC48D3D36A
310
231D4BFAFAB254D7D5C00F55BA6E6BA16ECF5C961AE817B749A4014FD50F5B95
310
2D8D9E5989D2DB2FB9945F58F96DB5727F55F2455E6E9DEED987EB5F6D9F97FF
310
27CE199FDA01C509D86D37A67CDB9F29E57F8EAFAE743BFA7C2612A96DC33A3A
310
DCDE7831B6AFDDAD6B196BDD9E3B9BB111EF6E9475F8E611B6B25F99DED33733
310
0A00D3C1661F54D7B15B76CC84C900BB7D6FEFFDDEF1C5FB6AC0AA7E014ED80C
310
31FA9AFB4DAA6DA179FCFF392F98AC9E442E0FB6FECDB7EAA0EB57D9C7FF0100
310
00FFFF0300504B0304140006000800000021003F2D1B3C5E010000B602000011
310
000801646F6350726F70732F636F72652E786D6C20A2040128A0000100000000
310
0000000000000000000000000000000000000000000000000000000000000000
310
0000000000000000000000000000000000000000000000000000000000000000
310
0000000000000000000000000000000000000000000000000000000000000000
310
0000000000000000000000000000000000000000000000000000000000000000
310
0000000000000000000000000000000000000000000000000000000000000000
310
0000000000000000000000000000000000000000000000000000000000000000
310
0000000000000000000000000000000000000000000000000000000000000000
310
000000000000000000000000000000000000000000000000000000008C92514F
310
83301485DF4DFC0FA4EFD00271990DB044CD9E5C622246E35B6DEFB63A28A4ED
310
C6F8F716D898983DF8D673CFE9C7BDB7248B63597807D046562A45614090078A
310
5742AA4D8ADEF2A53F479EB14C0956540A52D482418BECF626E135E59586175D
310
D5A0AD04E339923294D729DA5A5B538C0DDF42C94CE012CA99EB4A97CC3AA937
310
B8667CC73680234266B804CB04B30C7740BF1E89E884147C44D67B5DF400C131
310
145082B2068741882F590BBA34572FF4CEAF64296D5BC3D5E8D91CD34723C760
310
D3344113F751D77F883F56CFAFFDA8BE54DDAE38A02C119C5A690BC8127C39BA
310
93D97F7D03B7437914EECC35305BE9C118855BF30EDAA6D2C23867A29C2898B1
310
2BF7586B09E2A11D027F6BAEA4E120BB07CE667D6294C9695BC3E740786E4A3A
310
ECE4ECBCC78F4FF912651109EFFC90F8E17D4EE6349E53423EBB4E27F72FC0F2
310
D4C03F8811C9C38846F19478060C334DFFB4EC070000FFFF0300504B03041400
310
0600080000002100FB21C5F6EF020000CC0F000012000000776F72642F6E756D
310
626572696E672E786D6CCC564B6EDB3010DD17E81D04ED137DFC85102548E2A6
310
48D1060592A26B5AA26D22FC81A4E47ADBCBF4083D56AFD0A17EB6E3208864B7
310
F1C6B486338F8F8F7A239E5DFC60D4C9B1D244F0D80D4E7DD7C13C1129E1F3D8
310
FDF6707332761D6D104F11151CC7EE0A6BF7E2FCFDBBB365C43336C50A121DC0
310
E03A5ACA247617C6C8C8F374B2C00CE953461225B49899D344304FCC6624C1DE
310
52A8D40BFDC02FFE492512AC35E05C239E23ED56706C174D48CC617226144306
310
1ED5DC63483D66F204D02532644A28312BC0F687358C88DD4CF1A882386908D9
310
92A824540D75857ACDBA65C9442419C3DC142B7A0A53E020B85E10B9DE465734
310
985CD420F94B9BC819ADF39632E8EF770613859630AC015F433F2D8B182D99BF
310
8C18F8AF38110BD154BC86C2F69A351386085F2FDC499A0D7183413B80F02980
310
9CEF77381F95C8E41A8DEC8776CB1F1B2C6BED1658D5216F6E4DEF47E67E8124
310
389025D1ED9C0B85A61418C19139A0BA635F6BF71C5A0E9A6AA35062EE32E66C
310
3DDDA6B10BAD0B922385A15F291B2CBBD3E5CC6075A5307AB42916856B924279
310
8E68EC8657C3F1A8370E5DCFCEB08C1AF219E7983EAC24AE7316ABA922E9173B
310
47ED5C996B98A47546E04F3E8C26418542733B416028494546526866FEB57FE9
310
FB7E5070283836E5651D34D41BD604A719A5D834880FF84733F5E7E7EF26FE29
310
A9A314CFAA74F955D98170BB4D1B8EDD51583059203E2F5A7B6FE8DB5CAF4956
310
D57023B8D1565C9D1078C1EE576C2A68517A09BA6D050807E014CF1028538115
310
285E41ECA912C18E12BDFD95106D7508FAFD6E425C8B4C11AC9C3BBCDC50E349
310
34D1BB89ED540A77541A1CE27DF9D556A7301876D3E93B64DBDB83DE50693BD6
310
4E90DE3306B211F84EC2C736C7568DB73054381EBFB5A3FACF38EAE0D2B47618
310
E870D40E1B3CE3B07FF042B5765CBFD7B1451FDA71C32375DCC0EFD8BA0FE7B8
310
D1513A6E30EAD8ABFF93E3C647EAB861BF630BDFDF71DED6EDB5DAA853FCDAAB
310
6CA9C7D6FDB6DE51CD90DBB2722CEFB9E77F010000FFFF0300504B0304140006
310
000800000021008EB8388E1C0200000D08000012000000776F72642F666F6E74
310
5461626C652E786D6CD494DB8ADB301086EF0B7D07A3FB8D0F718EACB3A4E906
310
0AA517DB2DBD5614D916D5C1689478F3F61DD94976D32425A6B0500B63F91FE9
310
F7E863C6F70F2F4A065B6E41189D91B81791806B66D6421719F9F1BCBC1B9300
310
1CD56B2A8DE619D971200FB38F1FEEEB696EB48300F76B982A9691D2B96A1A86
310
C04AAE28F44CC5350673631575F86A8B5051FB6B53DD31A32AEAC44A48E17661
310
124543B2B7B1B7B8983C178C7F366CA3B876CDFED072898E4643292A38B8D5B7
310
B8D5C6AE2B6B1807C0332BD9FA292AF4D1264ECF8C9460D680C95D0F0FB3CFA8
310
B1C2ED71D4CC947C35187433488E068A4DBF14DA58BA92081F3309D08CCCF6F4
310
837AAAA9C2C0F79D5A19D9E815D506788CA12D9519890638E2C867358A86F81C
310
442312FA85ACA416B8F7681726AD9C5325E4EEA05AA3A86E039570AC3CE85B6A
310
85CFA90D812830B08155843EFB8BB44A8C4575AA24676BFAA70A6B7CC6A74AFC
310
660D7E336C019C8178168A43F08DD7C15393F92522098E61D4471229DE09CED2
310
CB449A2FFD3B9147CC39992F97AF4416A88CC6697C4664F23722CD6BDCFADC4E
310
6461365670EB995CA131420293868AA79176A2A1CC9ADB4B3872F1C2D71D58F4
310
DF83C54FEC70FF67832B9D727675E814BA71E63F6A9405956265C595925836A5
310
E0478AC591742A09A80540B706F1074FDE16458AC27C71543A15C5A46B83B424
310
82AFA228DD551E9EC27BF198FB9493C73F7860A37EEA561937F2D84F60F61B00
310
00FFFF0300504B0304140006000800000021002E29C8E371010000C402000010
310
000801646F6350726F70732F6170702E786D6C20A2040128A000010000000000
310
0000000000000000000000000000000000000000000000000000000000000000
310
0000000000000000000000000000000000000000000000000000000000000000
310
0000000000000000000000000000000000000000000000000000000000000000
310
0000000000000000000000000000000000000000000000000000000000000000
310
0000000000000000000000000000000000000000000000000000000000000000
310
0000000000000000000000000000000000000000000000000000000000000000
310
0000000000000000000000000000000000000000000000000000000000000000
310
0000000000000000000000000000000000000000000000000000009C52CB6EC2
310
3010BC57EA3F44B9170754688516571555D5431F48047AB69C4D62D5B12DDB20
310
F8FB6E08A4A97AAB4F3B33DED1ECDAF0706874B2471F94358B743CCAD2048DB4
310
8532D522DDE4CF37F76912A23085D0D6E0223D62481FF8F515ACBC75E8A3C290
310
9085098BB48ED1CD190BB2C6468411C98694D2FA464482BE62B62C95C4272B77
310
0D9AC8265936637888680A2C6E5C6F98768EF37DFCAF6961659B2F6CF3A3233F
310
0E39364E8B88FCBDEDD4C07A02721B85CE55837C767F47420F61252A0C7C0CAC
310
2BE0D3FA22F05B605D01CB5A7821232D8F4F26C006101E9DD34A8A485BE56F4A
310
7A1B6C19938F53D4A46D0736BC02147F8D72E7553CF20CD810C2AB325D8CAEA0
310
585E545EB8FA9CAD47B09642E39206E7A5D00181FD10B0B48D1386EC585F91DF
310
57D8B8DC3EB58B38B7FC2607337EAA58AF9D901461321D4E3B10604D2C1614BF
310
4FD013F0426FE1756B4FBDA6C2E272E7AFD0EE6FDB7D4A3E9E8E323AA7855D38
310
1ABBFF2DFC1B0000FFFF0300504B01022D001400060008000000210032916F57
310
66010000A50500001300000000000000000000000000000000005B436F6E7465
310
6E745F54797065735D2E786D6C504B01022D00140006000800000021001E911A
310
B7EF0000004E0200000B000000000000000000000000009F0300005F72656C73
310
2F2E72656C73504B01022D0014000600080000002100B3BE8B1D05010000B603
310
00001C00000000000000000000000000BF060000776F72642F5F72656C732F64
310
6F63756D656E742E786D6C2E72656C73504B01022D0014000600080000002100
310
3932F36E6702000012080000110000000000000000000000000006090000776F
310
72642F646F63756D656E742E786D6C504B01022D001400060008000000210038
310
1723332B0600008D1A000015000000000000000000000000009C0B0000776F72
310
642F7468656D652F7468656D65312E786D6C504B01022D001400060008000000
310
2100AF522C7A4B070000221B00001100000000000000000000000000FA110000
310
776F72642F73657474696E67732E786D6C504B01022D00140006000800000021
310
005B6DFD9309010000F101000014000000000000000000000000007419000077
310
6F72642F77656253657474696E67732E786D6C504B01022D0014000600080000
310
0021002ACFE16A890B0000237100000F00000000000000000000000000AF1A00
310
00776F72642F7374796C65732E786D6C504B01022D0014000600080000002100
310
3F2D1B3C5E010000B6020000110000000000000000000000000065260000646F
310
6350726F70732F636F72652E786D6C504B01022D0014000600080000002100FB
310
21C5F6EF020000CC0F00001200000000000000000000000000FA280000776F72
310
642F6E756D626572696E672E786D6C504B01022D00140006000800000021008E
310
B8388E1C0200000D0800001200000000000000000000000000192C0000776F72
310
642F666F6E745461626C652E786D6C504B01022D00140006000800000021002E
310
29C8E371010000C40200001000000000000000000000000000652E0000646F63
310
50726F70732F6170702E786D6C504B0506000000000C000C00010300000C3100
310
0000000000000000000000000000000000000000000000000000000000000000
310
0000000000000000000000000000000000000000000000000000000000000000
310
0000000000000000000000000000000000000000000000000000000000000000
310
0000000000000000000000000000000000000000000000000000000000000000
310
0000000000000000000000000000000000000000000000000000000000000000
310
0000000000000000000000000000000000000000000000000000000000000000
310
0000000000000000000000000000000000000000000000000000000000000000
310
0000000000000000000000000000000000000000000000000000000000000000
310
0000000000000000000000000000000000000000000000000000000000000000
310
0000000000000000000000000000000000000000000000000000000000000000
310
0000000000000000000000000000000000000000000000000000000000000000
310
0000000000000000000000000000000000000000000000000000000000000000
310
0000000000000000000000000000000000000000000000000000000000000000
310
0000000000000000000000000000000000000000000000000000000000000000
310
0000000000000000000000000000000000000000000000000000000000000000
310
040000000000D70D340120005F00040000002D010200040000002D0102000400
310
00002D010200050000000902000000021C000000320A560058020B0004000000
310
0000D70D3401326D6D20616372796C6963002F0049004A0015002B0027002000
310
2A00150015002600050000000902000000020D000000320A56001B0401000400
310
00000000D70D340120003600050000000902000000021C000000FB02A4FF0000
310
000000009001000000020440000257696E6764696E6773000000000000000000
310
0000000000000000000000000000040000002D010300040000002D0103000400
310
00002D010300040000002D010200040000002D010200040000002D0102000400
310
000002010100040000002D010300040000002D010300040000002D0103000500
310
00000902000000020D000000320ACF00EE020100040800000000D70D3401A700
310
2A00040000002D010100040000002D010100040000002D010100050000000902
310
000000020D000000320ACF0018030100040000000000D70D340120006C000400
310
00002D010200040000002D010200040000002D01020005000000090200000002
310
1F000000320ACF0084030D00040000000000D70D340131782046455020486F6C
310
646572002F00280015002A002C003000150038003100150030002E001F000500
310
00000902000000020D000000320ACF0086050100040000000000D70D34012000
310
3600050000000902000000021C000000FB021000070000000000BC0200000000
310
0102022253797374656D000000000000949D1F0F00000000A0731E0C00000000
310
592928FD040000002D010400040000002D010400030000000000000000000000
310
0000000000000000000000004E414E4901000000FFFFFFFF0300000000000000
310
04000000FFFFFFFF20000000EC0900005F080000060000000700000018000000
310
0000000000000000000000000000000000000000000000000000000000000000
310
FFFFFFFF030000000400000004000000FFFFFFFF0700000000000000EC090000
310
5F080000D00E0000010009000003680700000100210600000000040000000301
310
0800050000000B0200000000050000000C025100600005000000090200000000
310
050000000102FFFFFF00A5000000410BC6008800200020000000000020002000
310
0000200028000000200000004000000001000100000000000001000000000000
310
00000000000000000000000000000000FFFFFF00000000000000000000000000
310
0000000000000000000000000000000000000000000000000000000000000000
310
0000000000000000000000000000000000000000000000000000000000000000
310
0000000000000000000000000000000000000000000000000000000000000000
310
0000000000000000000000000000000000000000FFFFFFFFF800000FF800000F
310
02004F006C006500500072006500730030003000310000000000000000000000
310
0000000000000000000000000000000000000000000000000000000000000000
310
18000200FFFFFFFFFFFFFFFFFFFFFFFF00000000000000000000000000000000
310
0000000000000000000000000000000000000000130000000A0F000000000000
310
0000000000000000000000000000000000000000000000000000000000000000
310
0000000000000000000000000000000000000000000000000000000000000000
310
00000000FFFFFFFFFFFFFFFFFFFFFFFF00000000000000000000000000000000
310
0000000000000000000000000000000000000000000000000000000000000000
310
0000000000000000000000000000000000000000000000000000000000000000
310
0000000000000000000000000000000000000000000000000000000000000000
310
00000000FFFFFFFFFFFFFFFFFFFFFFFF00000000000000000000000000000000
310
0000000000000000000000000000000000000000000000000000000000000000
310
0000000000000000000000000000000000000000000000000000000000000000
310
0000000000000000000000000000000000000000000000000000000000000000
310
00000000FFFFFFFFFFFFFFFFFFFFFFFF00000000000000000000000000000000
310
0000000000000000000000000000000000000000000000000000000000000000
310
F800000FF800000F8000000F8000000F8000000F8000000F8000000F8000000F
310
8000000F8000000F8000000F8000000F8000000F8000000F8000000F8000000F
310
8000000F8000000FF800000FF800000FF800000FF800000FF800001FF800003F
310
F800007FF80000FFF80001FFF80003FFFFFFFFFF21060000410B460066002000
310
2000000000002000200000002000280000002000000020000000010018000000
310
0000000C00000000000000000000000000000000000000000000000000000000
310
0000000000000000000000000000000000000000000000000000000000000000
310
0000000000000000000000000000000000000000000000000000000000000000
310
0000000000000000000000000000000000000000000000000000000000000000
310
00000000001F1E221F1E221F1E221F1E221F1E221F1E221F1E221F1E221F1E22
310
1F1E221F1E221F1E221F1E221F1E221F1E221F1E221F1E221F1E221F1E221F1E
310
221F1E221F1E221F1E2200000000000000000000000000000000000000000000
310
00000000001F1E22FFFFFFFFFFFFFFFFFFFFFFFFFFFFFFFFFFFFFFFFFFFFFFFF
310
FFFFFFFFFFFFFFFFFFFFFFFFFFFFFFFFFFFFFFFFFFFFFFFFFFFFFFFFFFFFFFFF
310
FFFFFFFFFFFFFF1F1E2200000000000000000000000000000000000000000000
310
00000000001F1E22FFFFFFFFFFFFFFFFFFFFFFFFFFFFFFFFFFFFFFFFFFFFFFFF
310
FFFFFFFFFFFFFFFFFFFFFFFFFFFFFFFFFFFFFFFFFFFFFFFFFFFFFFFFFFFFFFFF
310
FFFFFFFFFFFFFF1F1E2200000000000000000000000000000000000000000000
310
0000000000563726E5D5CAD2B4A1CCAA94BE9579B2805FAB755199562A99562A
310
FFFFFFFFFFFFFFFFFFFFFFFFFFFFFFFFFFFFFFFFFFFFFFFFFFFFFFFFFFFFFFFF
310
FFFFFFFFFFFFFF1F1E2200000000000000000000000000000099562A99562A99
310
562A99562A99562A99562A99562A99562A99562A99562A99562A99562A99562A
310
FFFFFF9898989898989898989898989898989898989898989898989898989898
310
98FFFFFFFFFFFF1F1E2200000000000000000000000000000099562A99562A99
310
562A99562A99562A99562A99562A99562A99562A99562A99562A99562A99562A
310
FFFFFFFFFFFFFFFFFFFFFFFFFFFFFFFFFFFFFFFFFFFFFFFFFFFFFFFFFFFFFFFF
310
FFFFFFFFFFFFFF1F1E2200000000000000000000000000000099562A99562A99
310
562A99562A99562A99562A99562A99562A99562A99562A99562A99562A99562A
310
FFFFFFFFFFFFFFFFFFFFFFFFFFFFFFFFFFFFFFFFFFFFFFFFFFFFFFFFFFFFFFFF
310
FFFFFFFFFFFFFF1F1E2200000000000000000000000000000099562A99562A99
310
562A99562A99562A99562A99562A99562A99562A99562A99562A99562A99562A
310
FFFFFF9898989898989898989898989898989898989898989898989898989898
310
98FFFFFFFFFFFF1F1E2200000000000000000000000000000099562A99562A99
310
562ACCAA94E6D5CABF957999562AC59F86E6D5CABF957999562A99562A99562A
310
FFFFFFFFFFFFFFFFFFFFFFFFFFFFFFFFFFFFFFFFFFFFFFFFFFFFFFFFFFFFFFFF
310
FFFFFFFFFFFFFF1F1E2200000000000000000000000000000099562A99562A99
310
562AECDFD7FFFFFFDFCABB99562AE6D5CAFFFFFFDFCABB99562A99562A99562A
310
FFFFFFFFFFFFFFFFFFFFFFFFFFFFFFFFFFFFFFFFFFFFFFFFFFFFFFFFFFFFFFFF
310
FFFFFFFFFFFFFF1F1E2200000000000000000000000000000099562A99562A9F
310
6036FFFFFFFFFFFFF9F4F299562AFFFFFFFFFFFFF2EAE499562A99562A99562A
310
FFFFFF9898989898989898989898989898989898989898989898989898989898
310
98FFFFFFFFFFFF1F1E2200000000000000000000000000000099562A99562AB2
310
805EFFFFFFECDFD7FFFFFFBF9579FFFFFFECDFD7FFFFFFA56A4499562A99562A
310
FFFFFFFFFFFFFFFFFFFFFFFFFFFFFFFFFFFFFFFFFFFFFFFFFFFFFFFFFFFFFFFF
310
FFFFFFFFFFFFFF1F1E2200000000000000000000000000000099562A99562ACC
310
AA94FFFFFFBF9579FFFFFFECDFD7FFFFFFC59F86FFFFFFBF957999562A99562A
310
FFFFFFFFFFFFFFFFFFFFFFFFFFFFFFFFFFFFFFFFFFFFFFFFFFFFFFFFFFFFFFFF
310
FFFFFFFFFFFFFF1F1E2200000000000000000000000000000099562A99562AE6
310
D5CAFFFFFF99562AF2EAE4FFFFFFFFFFFF9F6036FFFFFFD3B4A199562A99562A
310
FFFFFF9898989898989898989898989898989898989898989898989898989898
310
98FFFFFFFFFFFF1F1E2200000000000000000000000000000099562A99562AF9
310
F4F2F2EAE499562ADFCABBFFFFFFE6D5CA99562AF2EAE4ECDFD799562A99562A
310
FFFFFFFFFFFFFFFFFFFFFFFFFFFFFFFFFFFFFFFFFFFFFFFFFFFFFFFFFFFFFFFF
310
FFFFFFFFFFFFFF1F1E2200000000000000000000000000000099562AAC7551FF
310
FFFFDFCABB99562AC59F86FFFFFFCCAA9499562AE6D5CAFFFFFF99562A99562A
310
FFFFFFFFFFFFFFFFFFFFFFFFFFFFFFFFFFFFFFFFFFFFFFFFFFFFFFFFFFFFFFFF
310
FFFFFFFFFFFFFF1F1E2200000000000000000000000000000099562A99562A99
310
562A99562A99562A99562A99562A99562A99562A99562A99562A99562A99562A
310
FFFFFF9898989898989898989898989898989898989898989898989898989898
310
98FFFFFFFFFFFF1F1E2200000000000000000000000000000099562A99562A99
310
562A99562A99562A99562A99562A99562A99562A99562A99562A99562A99562A
310
FFFFFFFFFFFFFFFFFFFFFFFFFFFFFFFFFFFFFFFFFFFFFFFFFFFFFFFFFFFFFFFF
310
FFFFFFFFFFFFFF1F1E2200000000000000000000000000000099562A99562A99
310
562A99562A99562A99562A99562A99562A99562A99562A99562A99562A99562A
310
FFFFFFFFFFFFFFFFFFFFFFFFFFFFFFFFFFFFFFFFFFFFFFFFFFFFFFFFFFFFFFFF
310
FFFFFFFFFFFFFF1F1E2200000000000000000000000000000099562A99562A99
310
562A99562A99562A99562A99562A99562A99562A99562A99562A99562A99562A
310
FFFFFF9898989898989898989898989898989898989898989898989898989898
310
98FFFFFFFFFFFF1F1E2200000000000000000000000000000000000000000000
310
00000000001F1E22ECDFD7E5D5CAD2B4A1CCAA94B2805FB2805F99562A99562A
310
FFFFFFFFFFFFFFFFFFFFFFFFFFFFFFFFFFFFFFFFFFFFFFFFFFFFFFFFFFFFFFFF
310
FFFFFFFFFFFFFF1F1E2200000000000000000000000000000000000000000000
310
00000000001F1E22FFFFFFFFFFFFFFFFFFFFFFFFFFFFFFFFFFFFFFFFFFFFFFFF
310
FFFFFFFFFFFFFFFFFFFFFFFFFFFFFFFFFFFFFFFFFFFFFFFFFFFFFFFFFFFFFFFF
310
FFFFFFFFFFFFFF1F1E2200000000000000000000000000000000000000000000
310
00000000001F1E22FFFFFFFFFFFF989898989898989898989898989898989898
310
9898989898989898989898989898989898986867696867696867696867696867
310
69A5A4A6A4A3A51F1E2200000000000000000000000000000000000000000000
310
00000000001F1E22FFFFFFFFFFFFFFFFFFFFFFFFFFFFFFFFFFFFFFFFFFFFFFFF
310
FFFFFFFFFFFFFFFFFFFFFFFFFFFFFFFFFFFFA5A4A6FFFFFFFFFFFFFFFFFFFFFF
310
FFF9F9F93D3C3F1F1E2200000000000000000000000000000000000000000000
310
00000000001F1E22FFFFFFFFFFFFFFFFFFFFFFFFFFFFFFFFFFFFFFFFFFFFFFFF
310
FFFFFFFFFFFFFFFFFFFFFFFFFFFFFFFFFFFFA5A4A6FFFFFFFFFFFFFFFFFFF9F9
310
F93D3C3F1F1E2200000000000000000000000000000000000000000000000000
310
00000000001F1E22FFFFFFFFFFFF989898989898989898989898989898989898
310
989898989898989898989898989898989898686769FFFFFFFFFFFFF9F9F93D3C
310
3F1F1E2200000000000000000000000000000000000000000000000000000000
310
00000000001F1E22FFFFFFFFFFFFFFFFFFFFFFFFFFFFFFFFFFFFFFFFFFFFFFFF
310
FFFFFFFFFFFFFFFFFFFFFFFFFFFFFFFFFFFFA5A4A6FFFFFFF9F9F93D3C3F1F1E
310
2200000000000000000000000000000000000000000000000000000000000000
310
00000000001F1E22FFFFFFFFFFFFFFFFFFFFFFFFFFFFFFFFFFFFFFFFFFFFFFFF
310
FFFFFFFFFFFFFFFFFFFFFFFFFFFFFFFFFFFFA5A4A6F9F9F93D3C3F1F1E220000
310
0000000000000000000000000000000000000000000000000000000000000000
310
00000000001F1E22FFFFFFFFFFFFFFFFFFFFFFFFFFFFFFFFFFFFFFFFFFFFFFFF
310
FFFFFFFFFFFFFFFFFFFFFFFFFFFFFFFFFFFFA4A3A53D3C3F1F1E220000000000
310
0000000000000000000000000000000000000000000000000000000000000000
310
00000000001F1E221F1E221F1E221F1E221F1E221F1E221F1E221F1E221F1E22
310
1F1E221F1E221F1E221F1E221F1E221F1E221F1E221F1E220000000000000000
310
0000000000000000000000000000000000000000000000000000000000000000
310
0000000000000000000000000000000000000000000000000000000000000000
310
0000000000000000000000000000000000000000000000000000000000000000
310
000000000000000000000000000000000000000000000A00000026060F000900
310
49636F6E4F6E6C79000005000000090200000000050000000201010000001C00
310
0000FB02F4FF000000000000900100000001000000005365676F652055490000
310
000093EF27FDFE0700004000000000000000D6170A1A040000002D0100000500
310
00002E01060000000F000000320A24003000080004000000000060005100446F
310
63756D656E74050000002E01010000002A00000026060F004900433A5C57696E
310
646F77735C496E7374616C6C65725C7B39303135303030302D303030462D3030
310
30302D313030302D3030303030303046463143457D5C776F726469636F6E2E65
310
786500000700000026060F000300313300000300000000000000000000000000
310
0000000000000000000000000000000000000000000000000000000000000000
310
0000000000000000000000000000000000000000000000000000000000000000
  1
OLE
  0
ENDSEC
  0
SECTION
  2
OBJECTS
  0
DICTIONARY
  5
C
330
0
100
AcDbDictionary
281
     1
  3
ACAD_GROUP
350
D
  3
ACAD_LAYOUT
350
1A
  3
ACAD_MLINESTYLE
350
17
  3
ACAD_PLOTSETTINGS
350
19
  3
ACAD_PLOTSTYLENAME
350
E
  3
ACAD_SCALELIST
350
47
  0
DICTIONARY
  5
D
102
{ACAD_REACTORS
330
C
102
}
330
C
100
AcDbDictionary
281
     1
  0
DICTIONARY
  5
1A
102
{ACAD_REACTORS
330
C
102
}
330
C
100
AcDbDictionary
281
     1
  3
Layout1
350
1E
  3
Layout2
350
26
  3
Model
350
22
  0
DICTIONARY
  5
17
102
{ACAD_REACTORS
330
C
102
}
330
C
100
AcDbDictionary
281
     1
  3
Standard
350
18
  0
DICTIONARY
  5
19
102
{ACAD_REACTORS
330
C
102
}
330
C
100
AcDbDictionary
281
     1
  0
ACDBDICTIONARYWDFLT
  5
E
102
{ACAD_REACTORS
330
C
102
}
330
C
100
AcDbDictionary
281
     1
  3
Normal
350
F
100
AcDbDictionaryWithDefault
340
F
  0
DICTIONARY
  5
47
102
{ACAD_REACTORS
330
C
102
}
330
C
100
AcDbDictionary
281
     1
  3
A0
350
48
  3
A1
350
49
  3
A2
350
4A
  3
A3
350
4B
  3
A4
350
4C
  3
A5
350
4D
  3
A6
350
4E
  3
A7
350
4F
  3
A8
350
50
  3
A9
350
51
  3
B0
350
52
  3
B1
350
53
  3
B2
350
54
  3
B3
350
55
  3
B4
350
56
  3
B5
350
57
  3
B6
350
58
  3
B7
350
59
  3
B8
350
5A
  3
B9
350
5B
  3
C0
350
5C
  3
C1
350
5D
  3
C2
350
5E
  3
C3
350
5F
  3
C4
350
60
  3
C5
350
61
  3
C6
350
62
  3
C7
350
63
  3
C8
350
64
  3
C9
350
65
  3
D0
350
66
  3
D1
350
67
  3
D2
350
68
  0
LAYOUT
  5
1E
102
{ACAD_REACTORS
330
1A
102
}
330
1A
100
AcDbPlotSettings
  1

  2
none_device
  4

  6

 40
0.0
 41
0.0
 42
0.0
 43
0.0
 44
0.0
 45
0.0
 46
0.0
 47
0.0
 48
0.0
 49
0.0
140
0.0
141
0.0
142
1.0
143
1.0
 70
   688
 72
     1
 73
     0
 74
     5
  7

 75
    16
147
1.0
148
0.0
149
0.0
100
AcDbLayout
  1
Layout1
 70
     1
 71
     1
 10
0.0
 20
0.0
 11
420.0
 21
297.0
 12
0.0
 22
0.0
 32
0.0
 14
1.0000000000E+20
 24
1.0000000000E+20
 34
1.0000000000E+20
 15
-1.0000000000E+20
 25
-1.0000000000E+20
 35
-1.0000000000E+20
146
0.0
 13
0.0
 23
0.0
 33
0.0
 16
1.0
 26
0.0
 36
0.0
 17
0.0
 27
1.0
 37
0.0
 76
     0
330
1B
  0
LAYOUT
  5
26
102
{ACAD_REACTORS
330
1A
102
}
330
1A
100
AcDbPlotSettings
  1

  2
none_device
  4

  6

 40
0.0
 41
0.0
 42
0.0
 43
0.0
 44
0.0
 45
0.0
 46
0.0
 47
0.0
 48
0.0
 49
0.0
140
0.0
141
0.0
142
1.0
143
1.0
 70
   688
 72
     1
 73
     0
 74
     5
  7

 75
    16
147
1.0
148
0.0
149
0.0
100
AcDbLayout
  1
Layout2
 70
     1
 71
     2
 10
0.0
 20
0.0
 11
0.0
 21
0.0
 12
0.0
 22
0.0
 32
0.0
 14
0.0
 24
0.0
 34
0.0
 15
0.0
 25
0.0
 35
0.0
146
0.0
 13
0.0
 23
0.0
 33
0.0
 16
1.0
 26
0.0
 36
0.0
 17
0.0
 27
1.0
 37
0.0
 76
     0
330
23
  0
LAYOUT
  5
22
102
{ACAD_REACTORS
330
1A
102
}
330
1A
100
AcDbPlotSettings
  1

  2
none_device
  4
Letter_(8.50_x_11.00_Inches)
  6

 40
6.35
 41
6.35
 42
6.35000508
 43
6.35000508
 44
215.9
 45
279.4
 46
0.0
 47
0.0
 48
0.0
 49
0.0
140
0.0
141
0.0
142
1.0
143
1.0
 70
  1712
 72
     1
 73
     0
 74
     0
  7

 75
     0
147
1.0
148
0.0
149
0.0
100
AcDbLayout
  1
Model
 70
     1
 71
     0
 10
0.0
 20
0.0
 11
420.0
 21
297.0
 12
0.0
 22
0.0
 32
0.0
 14
0.0
 24
0.0
 34
0.0
 15
420.0
 25
297.0
 35
0.0
146
0.0
 13
0.0
 23
0.0
 33
0.0
 16
1.0
 26
0.0
 36
0.0
 17
0.0
 27
1.0
 37
0.0
 76
     0
330
1F
331
29
  0
MLINESTYLE
  5
18
102
{ACAD_REACTORS
330
17
102
}
330
17
100
AcDbMlineStyle
  2
Standard
 70
     0
  3

 62
   256
 51
90.0
 52
90.0
 71
     2
 49
0.5
 62
   256
  6
BYLAYER
 49
-0.5
 62
   256
  6
BYLAYER
  0
ACDBPLACEHOLDER
  5
F
102
{ACAD_REACTORS
330
E
102
}
330
E
  0
SCALE
  5
48
102
{ACAD_REACTORS
330
47
102
}
330
47
100
AcDbScale
 70
     0
300
1:1
140
1.0
141
1.0
290
     1
  0
SCALE
  5
49
102
{ACAD_REACTORS
330
47
102
}
330
47
100
AcDbScale
 70
     0
300
1:2
140
1.0
141
2.0
290
     0
  0
SCALE
  5
4A
102
{ACAD_REACTORS
330
47
102
}
330
47
100
AcDbScale
 70
     0
300
1:4
140
1.0
141
4.0
290
     0
  0
SCALE
  5
4B
102
{ACAD_REACTORS
330
47
102
}
330
47
100
AcDbScale
 70
     0
300
1:5
140
1.0
141
5.0
290
     0
  0
SCALE
  5
4C
102
{ACAD_REACTORS
330
47
102
}
330
47
100
AcDbScale
 70
     0
300
1:8
140
1.0
141
8.0
290
     0
  0
SCALE
  5
4D
102
{ACAD_REACTORS
330
47
102
}
330
47
100
AcDbScale
 70
     0
300
1:10
140
1.0
141
10.0
290
     0
  0
SCALE
  5
4E
102
{ACAD_REACTORS
330
47
102
}
330
47
100
AcDbScale
 70
     0
300
1:16
140
1.0
141
16.0
290
     0
  0
SCALE
  5
4F
102
{ACAD_REACTORS
330
47
102
}
330
47
100
AcDbScale
 70
     0
300
1:20
140
1.0
141
20.0
290
     0
  0
SCALE
  5
50
102
{ACAD_REACTORS
330
47
102
}
330
47
100
AcDbScale
 70
     0
300
1:30
140
1.0
141
30.0
290
     0
  0
SCALE
  5
51
102
{ACAD_REACTORS
330
47
102
}
330
47
100
AcDbScale
 70
     0
300
1:40
140
1.0
141
40.0
290
     0
  0
SCALE
  5
52
102
{ACAD_REACTORS
330
47
102
}
330
47
100
AcDbScale
 70
     0
300
1:50
140
1.0
141
50.0
290
     0
  0
SCALE
  5
53
102
{ACAD_REACTORS
330
47
102
}
330
47
100
AcDbScale
 70
     0
300
1:100
140
1.0
141
100.0
290
     0
  0
SCALE
  5
54
102
{ACAD_REACTORS
330
47
102
}
330
47
100
AcDbScale
 70
     0
300
2:1
140
2.0
141
1.0
290
     0
  0
SCALE
  5
55
102
{ACAD_REACTORS
330
47
102
}
330
47
100
AcDbScale
 70
     0
300
4:1
140
4.0
141
1.0
290
     0
  0
SCALE
  5
56
102
{ACAD_REACTORS
330
47
102
}
330
47
100
AcDbScale
 70
     0
300
8:1
140
8.0
141
1.0
290
     0
  0
SCALE
  5
57
102
{ACAD_REACTORS
330
47
102
}
330
47
100
AcDbScale
 70
     0
300
10:1
140
10.0
141
1.0
290
     0
  0
SCALE
  5
58
102
{ACAD_REACTORS
330
47
102
}
330
47
100
AcDbScale
 70
     0
300
100:1
140
100.0
141
1.0
290
     0
  0
SCALE
  5
59
102
{ACAD_REACTORS
330
47
102
}
330
47
100
AcDbScale
 70
     0
300
1/128" = 1'-0"
140
0.0078125
141
12.0
290
     0
  0
SCALE
  5
5A
102
{ACAD_REACTORS
330
47
102
}
330
47
100
AcDbScale
 70
     0
300
1/64" = 1'-0"
140
0.015625
141
12.0
290
     0
  0
SCALE
  5
5B
102
{ACAD_REACTORS
330
47
102
}
330
47
100
AcDbScale
 70
     0
300
1/32" = 1'-0"
140
0.03125
141
12.0
290
     0
  0
SCALE
  5
5C
102
{ACAD_REACTORS
330
47
102
}
330
47
100
AcDbScale
 70
     0
300
1/16" = 1'-0"
140
0.0625
141
12.0
290
     0
  0
SCALE
  5
5D
102
{ACAD_REACTORS
330
47
102
}
330
47
100
AcDbScale
 70
     0
300
3/32" = 1'-0"
140
0.09375
141
12.0
290
     0
  0
SCALE
  5
5E
102
{ACAD_REACTORS
330
47
102
}
330
47
100
AcDbScale
 70
     0
300
1/8" = 1'-0"
140
0.125
141
12.0
290
     0
  0
SCALE
  5
5F
102
{ACAD_REACTORS
330
47
102
}
330
47
100
AcDbScale
 70
     0
300
3/16" = 1'-0"
140
0.1875
141
12.0
290
     0
  0
SCALE
  5
60
102
{ACAD_REACTORS
330
47
102
}
330
47
100
AcDbScale
 70
     0
300
1/4" = 1'-0"
140
0.25
141
12.0
290
     0
  0
SCALE
  5
61
102
{ACAD_REACTORS
330
47
102
}
330
47
100
AcDbScale
 70
     0
300
3/8" = 1'-0"
140
0.375
141
12.0
290
     0
  0
SCALE
  5
62
102
{ACAD_REACTORS
330
47
102
}
330
47
100
AcDbScale
 70
     0
300
1/2" = 1'-0"
140
0.5
141
12.0
290
     0
  0
SCALE
  5
63
102
{ACAD_REACTORS
330
47
102
}
330
47
100
AcDbScale
 70
     0
300
3/4" = 1'-0"
140
0.75
141
12.0
290
     0
  0
SCALE
  5
64
102
{ACAD_REACTORS
330
47
102
}
330
47
100
AcDbScale
 70
     0
300
1" = 1'-0"
140
1.0
141
12.0
290
     0
  0
SCALE
  5
65
102
{ACAD_REACTORS
330
47
102
}
330
47
100
AcDbScale
 70
     0
300
1-1/2" = 1'-0"
140
1.5
141
12.0
290
     0
  0
SCALE
  5
66
102
{ACAD_REACTORS
330
47
102
}
330
47
100
AcDbScale
 70
     0
300
3" = 1'-0"
140
3.0
141
12.0
290
     0
  0
SCALE
  5
67
102
{ACAD_REACTORS
330
47
102
}
330
47
100
AcDbScale
 70
     0
300
6" = 1'-0"
140
6.0
141
12.0
290
     0
  0
SCALE
  5
68
102
{ACAD_REACTORS
330
47
102
}
330
47
100
AcDbScale
 70
     0
300
1'-0" = 1'-0"
140
12.0
141
12.0
290
     0
  0
ENDSEC
  0
EOF
